<?xml version="1.0" encoding="utf-8"?>
<!-- Generator: Adobe Illustrator 26.0.0, SVG Export Plug-In . SVG Version: 6.00 Build 0)  -->
<svg version="1.1" id="Слой_1" xmlns="http://www.w3.org/2000/svg" xmlns:xlink="http://www.w3.org/1999/xlink" x="0px" y="0px"
	 viewBox="0 0 300 300" style="enable-background:new 0 0 300 300;" xml:space="preserve">
<style type="text/css">
	.st0{fill:#FFFFFF;}
	.st1{fill:#2272B4;}
</style>
<path class="st0" d="M6.2,300.1c-1.9,0-3.9,0-5.8,0c0-99.9,0-199.8,0-299.7c99.9,0,199.8,0,299.7,0c0,73.8,0,147.6,0,221.4
	c-2.3-3.9-5.5-6.3-10.3-5.6c-5,0.8-8,4.6-8,10.2c0,17.2,0,34.5,0,51.7c0,1.1,0,2.3,0,3.5c-87.6,0-174.7,0-262.1,0c0-1.3,0-2.3,0-3.4
	c0-17,0-34.1,0-51.1c0-1.4,0-3-0.4-4.3c-1.3-4.4-5.9-7.3-10.1-6.6c-4.9,0.8-8.2,4.5-8.2,9.5c0,20.7,0.1,41.5-0.1,62.2
	C0.8,293,1.9,297.1,6.2,300.1z M141.2,193.5c-8-8-15.4-15.4-22.9-22.9c-11.1-11.2-22.3-22.3-33.4-33.5c-3.7-3.6-8.5-4.2-12.5-1.5
	c-5.2,3.6-5.4,10.3-0.4,15.3c23.5,23.5,47.1,47.1,70.6,70.6c5.6,5.6,10.5,5.6,16.1,0c23.3-23.3,46.7-46.6,70-70
	c0.8-0.8,1.5-1.5,2.2-2.4c3.9-5.1,1.8-12.4-4.3-14.6c-4.1-1.4-7.5-0.2-10.6,2.9c-17.7,17.8-35.5,35.5-53.3,53.3
	c-0.7,0.7-1.4,1.3-2.6,2.4c0-1.9,0-3.1,0-4.3c0-58.6,0-117.2,0-175.8c0-1.6-0.1-3.3-0.4-4.9c-0.8-3.9-3.4-6.3-7.2-7.2
	c-3.8-0.9-8,0.7-9.7,4.2c-1,2.1-1.6,4.6-1.6,6.9c-0.1,59-0.1,118-0.1,177C141.2,190.4,141.2,191.6,141.2,193.5z"/>
<path class="st1" d="M6.2,300.1c-4.3-3-5.4-7.1-5.3-12.3c0.2-20.7,0.1-41.5,0.1-62.2c0-4.9,3.3-8.7,8.2-9.5
	c4.2-0.7,8.8,2.3,10.1,6.6c0.4,1.4,0.4,2.9,0.4,4.3c0,17,0,34.1,0,51.1c0,1.1,0,2.1,0,3.4c87.3,0,174.5,0,262.1,0c0-1.2,0-2.4,0-3.5
	c0-17.2,0-34.5,0-51.7c0-5.6,3-9.5,8-10.2c4.7-0.7,7.9,1.8,10.3,5.6c0,24.3,0,48.7,0,73c-1.8,1.8-3.5,3.5-5.3,5.3
	C198.6,300.1,102.4,300.1,6.2,300.1z"/>
<path class="st0" d="M294.7,300.1c1.8-1.8,3.5-3.5,5.3-5.3c0,1.8,0,3.5,0,5.3C298.2,300.1,296.5,300.1,294.7,300.1z"/>
<path class="st1" d="M141.2,193.5c0-2,0-3.1,0-4.2c0-59,0-118,0.1-177c0-2.3,0.6-4.9,1.6-6.9c1.8-3.5,5.9-5.1,9.7-4.2
	c3.8,0.9,6.4,3.2,7.2,7.2c0.3,1.6,0.4,3.3,0.4,4.9c0,58.6,0,117.2,0,175.8c0,1.2,0,2.3,0,4.3c1.2-1.1,1.9-1.7,2.6-2.4
	c17.8-17.8,35.5-35.5,53.3-53.3c3-3,6.4-4.3,10.6-2.9c6.1,2.1,8.3,9.4,4.3,14.6c-0.6,0.8-1.4,1.6-2.2,2.4
	c-23.3,23.3-46.7,46.6-70,70c-5.6,5.6-10.5,5.6-16.1,0c-23.6-23.5-47.1-47-70.6-70.6c-5-5-4.8-11.8,0.4-15.3
	c3.9-2.7,8.8-2.1,12.5,1.5c11.2,11.1,22.3,22.3,33.4,33.5C125.7,178.1,133.2,185.5,141.2,193.5z"/>
</svg>
