<svg width="235" height="67" viewBox="0 0 235 67" fill="none" xmlns="http://www.w3.org/2000/svg">
<path d="M100.828 0.298662V2.13624C105.265 2.13624 108.569 4.31232 108.569 9.7767C108.569 14.2256 105.167 16.8369 100.877 16.8369V18.2876H97.0314V16.8369C92.9884 16.8369 89.3398 14.2256 89.3398 9.87341C89.3398 4.31232 93.0377 2.13624 97.0314 2.13624L97.0807 0.250305H100.828V0.298662ZM97.0314 5.27947C95.4537 5.4729 93.3829 6.1499 93.3829 9.87341C93.3829 13.3068 95.4044 13.742 97.0314 13.8871V5.27947ZM100.828 13.8871C102.406 13.742 104.476 13.5486 104.476 9.82505C104.476 6.10154 102.554 5.4729 100.828 5.27947V13.8871Z" fill="#023465"/>
<path d="M119.959 11.2758L114.486 11.179V15.3378L120.748 15.3861V18.3359L110.443 18.2876V0.637146H120.354V3.9738H114.486V7.9391L119.959 8.03582V11.2758Z" fill="#023465"/>
<path d="M137.119 0.685486V15.241H139.387V23.3651H136.379L136.429 18.1908H125.138V23.3651H121.834L121.785 15.3861H123.363C124.102 14.1772 124.694 12.8715 125.089 11.4692C125.582 9.67995 126.716 8.08416 126.962 0.685486C128.096 0.685486 137.119 0.685486 137.119 0.685486ZM130.019 6.92358C129.378 10.6471 129.23 10.5504 128.688 12.2912C128.392 13.3551 127.899 14.419 127.455 15.2894H133.421V3.87707H130.315C130.364 3.87707 130.118 6.34329 130.019 6.92358Z" fill="#023465"/>
<path d="M151.168 11.3241H145.547V15.3861H151.858V18.3359H141.701L141.75 0.685486H151.513L151.562 3.97378H145.547L145.498 7.98744H151.118L151.168 11.3241Z" fill="#023465"/>
<path d="M154.178 0.346985C155.657 0.346985 157.481 0.346985 159.946 0.346985C163.694 0.346985 166.504 1.89442 166.504 6.05315C166.504 8.76116 165.37 11.856 159.848 12.0978C159.305 12.1462 158.369 12.0978 157.925 12.0978V18.2876H154.178V0.346985ZM157.925 9.14802C158.467 9.14802 159.404 9.19638 159.996 9.19638C161.524 9.19638 162.56 7.6973 162.56 6.34329C162.56 4.7475 161.179 3.3935 159.798 3.3935C159.01 3.3935 158.319 3.3935 157.876 3.3935V9.14802H157.925Z" fill="#023465"/>
<path d="M105.119 25.5895C106.598 25.5895 108.423 25.5895 110.888 25.5895C114.635 25.5895 117.445 27.137 117.445 31.2957C117.445 34.0037 116.311 37.0986 110.789 37.3404C110.247 37.3887 109.31 37.3404 108.866 37.3404V43.5301H105.119V25.5895ZM108.916 34.3422C109.458 34.3422 110.395 34.3906 110.986 34.3906C112.515 34.3906 113.55 32.8915 113.55 31.5375C113.55 29.9417 112.17 28.5877 110.789 28.5877C110 28.5877 109.31 28.5877 108.866 28.5877V34.3422H108.916Z" fill="#023465"/>
<path d="M222.613 39.6615L221.282 43.6751H217.189L223.205 25.6862H228.086L234.101 43.6751H229.664L228.53 39.6615H222.613ZM227.938 36.5183C227.938 36.5183 225.867 29.99 225.571 28.9262H225.522C225.275 29.99 223.155 36.5183 223.155 36.5183H227.938Z" fill="#023465"/>
<path d="M170.398 14.3223L169.067 18.3359H164.975L170.99 0.346985H175.871L181.886 18.3359H177.449L176.315 14.3223H170.398ZM175.723 11.179C175.723 11.179 173.652 4.65079 173.356 3.58693H173.307C173.061 4.65079 170.941 11.179 170.941 11.179H175.723Z" fill="#023465"/>
<path d="M141.752 39.5164L140.42 43.5785H136.328L142.343 25.5895H147.225L153.24 43.5785H148.802L147.668 39.5648H141.752V39.5164ZM147.175 36.5666L145.647 32.2145C145.351 31.1506 145.006 29.845 144.759 28.8295H144.71C144.463 29.8933 144.168 31.199 143.872 32.2145L142.393 36.5666H147.175Z" fill="#023465"/>
<path d="M187.21 0.346985V14.9993L194.359 15.0476V0.346985H198.106V15.0476H200.719V23.5101H197.317V18.3843H183.314V0.346985H187.21Z" fill="#023465"/>
<path d="M214.33 5.85972L206.786 18.3843H202.645V0.346985H206.441C206.441 0.346985 206.54 10.2119 206.441 12.5814L214.133 0.346985H218.471V18.3359L214.379 18.3843" fill="#023465"/>
<path d="M131.299 31.0539L123.656 43.5301H119.613V25.5412L123.41 25.5895C123.41 25.5895 123.41 35.4061 123.41 37.7756L131.052 25.5412L135.095 25.5895V43.5784L131.249 43.6268" fill="#023465"/>
<path d="M232.571 61.2773L229.514 66.3064H227.887V59.0528H229.415C229.415 59.0528 229.415 63.0181 229.415 63.9369L232.472 59.0045H234.099V66.2581H232.571" fill="#0076DB"/>
<path d="M219.654 18.3843C220.049 17.804 220.345 17.127 220.542 16.45C221.281 14.419 221.676 12.3396 223.056 11.0823C223.451 10.6955 224.042 10.357 224.634 10.1635C224.634 10.1635 220.936 9.67996 220.788 5.37616C220.739 3.68365 221.528 2.47472 222.662 1.65264C224.042 0.637141 225.571 0.395355 227.888 0.395355C229.86 0.395355 231.685 0.395355 233.065 0.395355V18.4326H229.022V11.5175H228.283C227.494 11.5175 227.395 11.711 226.902 12.1462C225.768 13.21 225.374 15.4345 224.831 16.8852C224.634 17.4171 224.437 17.804 224.141 18.3359L219.654 18.3843ZM229.269 3.39351C227.888 3.39351 224.831 3.24844 224.831 5.81138C224.831 7.40717 225.67 8.37431 229.269 8.37431V3.39351Z" fill="#023465"/>
<path d="M94.617 28.9745H89.7852V25.5412H103.541V28.9745H98.66V43.5785H94.617V28.9745Z" fill="#023465"/>
<path d="M156.348 28.9745H151.516V25.5412H165.272V28.9745H160.391V43.5785H156.348V28.9745Z" fill="#023465"/>
<path d="M179.864 25.5412V43.5784H175.673L175.722 29.1196L172.518 29.0712C172.271 31.2473 172.271 31.4408 171.433 36.3732C170.102 44.4489 167.538 43.6268 163.84 43.6751L163.889 40.1934C167.932 42.3211 168.08 32.8915 168.82 25.4928H179.864V25.5412Z" fill="#023465"/>
<path d="M204.862 25.5412V32.6013H211.666V25.5412H215.808V43.8686H211.666V36.4216H204.862V43.8686H200.721V25.5412H204.862Z" fill="#023465"/>
<path d="M190.317 25.5412C185.633 25.5412 181.936 29.5548 181.936 34.7291C181.936 39.8549 185.633 43.917 190.317 43.917C195.001 43.917 198.699 39.9033 198.699 34.7291C198.699 29.5548 195.051 25.5412 190.317 25.5412ZM190.317 40.2902C187.901 40.2902 185.88 37.7756 185.88 34.7291C185.88 31.6342 187.852 29.168 190.317 29.168C192.783 29.168 194.755 31.6825 194.755 34.7291C194.755 37.7756 192.783 40.2902 190.317 40.2902Z" fill="#023465"/>
<path d="M99.4956 61.7608C99.2491 62.6313 97.9671 66.4031 97.9671 66.4031H96.4387C96.4387 66.4031 95.1074 62.6796 94.9102 61.7608V66.4031H93.0859V59.0045H95.7484C95.7484 59.0045 97.0796 63.2599 97.2275 64.082H97.2769C97.4741 63.2599 98.756 59.0045 98.756 59.0045H101.418V66.4031H99.4956V61.7608Z" fill="#0076DB"/>
<path d="M110.691 62.5829C110.691 64.904 109.212 66.3064 107.091 66.3064C104.971 66.3064 103.492 64.6622 103.492 62.6312C103.492 60.5035 105.07 58.9561 107.19 58.9561C109.359 59.0044 110.691 60.6486 110.691 62.5829ZM105.415 62.6796C105.415 64.082 106.056 64.8073 107.141 64.8073C108.225 64.8073 108.866 64.0336 108.866 62.6796C108.866 61.3739 108.275 60.5035 107.141 60.5035C106.056 60.4552 105.415 61.2772 105.415 62.6796Z" fill="#0076DB"/>
<path d="M134.456 62.6313C134.456 64.9524 132.977 66.3548 130.857 66.3548C128.737 66.3548 127.258 64.7106 127.258 62.6796C127.258 60.5519 128.836 59.0045 130.956 59.0045C133.174 59.0045 134.456 60.6486 134.456 62.6313ZM129.181 62.728C129.181 64.1303 129.822 64.8557 130.906 64.8557C131.991 64.8557 132.632 64.082 132.632 62.728C132.632 61.4223 132.04 60.5519 130.906 60.5519C129.822 60.5035 129.181 61.3256 129.181 62.728Z" fill="#0076DB"/>
<path d="M165.763 62.6313C165.763 64.9524 164.284 66.3548 162.164 66.3548C160.044 66.3548 158.564 64.7106 158.564 62.6796C158.564 60.5519 160.142 59.0045 162.262 59.0045C164.481 59.0045 165.763 60.6486 165.763 62.6313ZM160.537 62.728C160.537 64.1303 161.178 64.8557 162.262 64.8557C163.347 64.8557 163.988 64.082 163.988 62.728C163.988 61.4223 163.396 60.5519 162.262 60.5519C161.178 60.5035 160.537 61.3256 160.537 62.728Z" fill="#0076DB"/>
<path d="M186.618 62.6313C186.618 64.9524 185.139 66.3548 183.019 66.3548C180.899 66.3548 179.42 64.7106 179.42 62.6796C179.42 60.5519 180.998 59.0045 183.118 59.0045C185.337 59.0045 186.618 60.6486 186.618 62.6313ZM181.343 62.728C181.343 64.1303 181.984 64.8557 183.068 64.8557C184.153 64.8557 184.794 64.082 184.794 62.728C184.794 61.4223 184.202 60.5519 183.068 60.5519C181.984 60.5035 181.343 61.3256 181.343 62.728Z" fill="#0076DB"/>
<path d="M117.986 66.0646C117.69 66.2097 117 66.3548 116.162 66.3548C113.647 66.3548 112.365 64.8073 112.365 62.7763C112.365 60.3585 114.14 59.0045 116.31 59.0045C117.148 59.0045 117.789 59.1495 118.085 59.343L117.739 60.6002C117.592 60.5519 117.394 60.4552 117.148 60.4068C116.901 60.3585 116.655 60.3101 116.359 60.3101C115.077 60.3101 114.091 61.0838 114.091 62.6796C114.091 64.082 114.929 65.0008 116.408 65.0008C116.901 65.0008 117.444 64.9041 117.789 64.759L117.986 66.0646Z" fill="#0076DB"/>
<path d="M122.079 59.0528V62.0993H122.227L124.199 59.0045H126.27L123.657 62.5345C124.101 62.5345 125.728 65.5327 126.27 66.3548H124.101C123.903 65.7261 122.671 63.405 122.227 63.2599H122.128V66.3064H120.354V59.0528H122.079Z" fill="#0076DB"/>
<path d="M153.583 59.0528V62.0993H153.731L155.703 59.0045H157.774L155.161 62.5345C155.605 62.5345 157.232 65.5327 157.774 66.3548H155.605C155.407 65.7261 154.175 63.405 153.731 63.2599H153.632V66.3064H151.857V59.0528H153.583Z" fill="#0076DB"/>
<path d="M136.622 59.0528C137.953 59.0528 141.651 58.6659 141.651 60.7936C141.651 62.2927 141.01 62.2444 140.369 62.4378C140.369 62.4378 141.947 62.7279 141.947 64.1787C141.947 64.8073 141.848 66.4031 139.186 66.3547C138.397 66.3547 136.918 66.4031 136.523 66.3547V59.0528H136.622ZM138.249 62.0026H138.791C139.827 62.0026 140.073 61.6641 140.073 61.1321C140.073 60.165 138.791 60.3101 138.249 60.3101V62.0026ZM138.249 65.1942C138.446 65.1942 138.594 65.1942 138.841 65.1942C139.58 65.1942 140.271 65.0491 140.271 64.1787C140.271 63.5017 139.63 63.3566 138.742 63.3566H138.2L138.249 65.1942Z" fill="#0076DB"/>
<path d="M149.54 66.0162C149.244 66.1613 148.603 66.3064 147.716 66.3064C145.251 66.3064 143.969 64.8073 143.969 62.8247C143.969 60.4552 145.694 59.1495 147.864 59.1495C148.702 59.1495 149.343 59.2946 149.639 59.4397L149.294 60.6969C148.998 60.5519 148.505 60.4552 147.962 60.4552C146.681 60.4552 145.694 61.2289 145.694 62.7763C145.694 64.1787 146.533 65.0491 147.962 65.0491C148.455 65.0491 148.998 64.9524 149.294 64.8073L149.54 66.0162Z" fill="#0076DB"/>
<path d="M172.418 59.0528H174.341V66.4031H172.862C172.862 66.4031 172.862 62.3411 172.862 61.2289H172.812C172.319 62.1477 169.854 66.4031 169.854 66.4031H167.98V59.0528H169.509C169.509 59.0528 169.509 62.873 169.509 63.7918H169.558" fill="#0076DB"/>
<path d="M173.602 56.7316C173.552 57.5053 173.552 58.6176 171.383 58.6176C169.213 58.6176 169.213 57.5053 169.164 56.7316H170.594C170.643 57.0701 170.594 57.6504 171.383 57.6504C172.122 57.6504 172.172 57.0701 172.172 56.7316H173.602Z" fill="#0076DB"/>
<path d="M193.573 59.0528V60.4552H190.466V61.9059C191.946 61.9059 192.833 62.1477 193.375 62.4862C194.115 62.9697 194.214 63.7435 194.214 64.082C194.214 64.5172 194.164 65.3876 193.523 65.7745C193.03 66.113 192.192 66.3064 190.614 66.3064C189.825 66.3064 189.135 66.3064 188.691 66.3064V59.0528H193.573ZM190.466 65.1942C191.107 65.1942 191.551 65.2425 192.044 65.0007C192.34 64.8557 192.389 64.5172 192.389 64.227C192.389 63.9852 192.291 63.6951 192.044 63.55C191.699 63.3566 191.403 63.3082 190.417 63.3082V65.1942H190.466Z" fill="#0076DB"/>
<path d="M202.298 59.1012V66.258H200.671V60.4552H199.044L198.995 61.8092C198.946 62.5829 198.946 63.6467 198.798 64.3721C198.65 65.0975 198.551 65.3393 198.058 65.8712C197.91 66.0163 197.466 66.4031 196.678 66.4031C196.135 66.4031 196.086 66.4031 195.691 66.4031V64.904C196.332 65.0975 196.875 65.0491 197.072 64.6139C197.368 64.1787 197.516 63.1632 197.516 61.8092C197.516 60.3101 197.516 59.3913 197.516 59.0528L202.298 59.1012Z" fill="#0076DB"/>
<path d="M206.835 64.4205L206.342 66.2097H204.666L206.835 59.2462H208.956L211.174 66.2097H209.449L208.906 64.4205H206.835ZM208.66 63.2599L208.216 61.7608C208.068 61.3256 207.969 60.842 207.871 60.4068C207.772 60.842 207.674 61.3256 207.526 61.7608L207.082 63.2599H208.66Z" fill="#0076DB"/>
<path d="M218.372 66.0162C218.076 66.1613 217.435 66.3064 216.548 66.3064C214.083 66.3064 212.801 64.8073 212.801 62.8247C212.801 60.4552 214.526 59.1495 216.696 59.1495C217.534 59.1495 218.175 59.2946 218.471 59.4397L218.126 60.6969C217.83 60.5519 217.337 60.4552 216.794 60.4552C215.513 60.4552 214.526 61.2289 214.526 62.7763C214.526 64.1787 215.365 65.0491 216.794 65.0491C217.288 65.0491 217.83 64.9524 218.126 64.8073L218.372 66.0162Z" fill="#0076DB"/>
<path d="M222.068 60.4551H219.898V59.0528H226.012V60.4551H223.843V66.4031H222.068V60.4551Z" fill="#0076DB"/>
<path d="M35.2543 66.4031C39.0665 66.4031 42.1569 63.3721 42.1569 59.6331C42.1569 55.8941 39.0665 52.8631 35.2543 52.8631C31.442 52.8631 28.3516 55.8941 28.3516 59.6331C28.3516 63.3721 31.442 66.4031 35.2543 66.4031Z" fill="#00AAE6"/>
<path d="M62.9164 32.6497C66.7286 32.6497 69.8191 29.6187 69.8191 25.8797C69.8191 22.1407 66.7286 19.1096 62.9164 19.1096C59.1041 19.1096 56.0137 22.1407 56.0137 25.8797C56.0137 29.6187 59.1041 32.6497 62.9164 32.6497Z" fill="#00AAE6"/>
<path d="M28.5488 66.4031L17.5538 66.3548L7.34766 49.7682L12.3275 40.1935L28.5488 66.4031Z" fill="#0078DC"/>
<path d="M61.683 66.4031L53.7942 66.3548H50.4908L40.334 49.3813L46.0534 40.1935L55.5199 56.0547L61.683 66.4031Z" fill="#0078DC"/>
<path d="M46.0512 40.1934L40.3319 49.3813H17.9967L12.2773 40.1934H46.0512Z" fill="#00AAE6"/>
<path d="M67.7452 56.0546L61.6807 66.4031L55.5176 56.0546H67.7452Z" fill="#0078DC"/>
<path d="M62.9144 32.6497C66.7267 32.6497 69.8171 29.6187 69.8171 25.8797C69.8171 22.1407 66.7267 19.1096 62.9144 19.1096C59.1022 19.1096 56.0117 22.1407 56.0117 25.8797C56.0117 29.6187 59.1022 32.6497 62.9144 32.6497Z" fill="#064981"/>
<path d="M72.4793 28.3942L78.1001 37.6305L68.2884 54.6039H57.0469L72.4793 28.3942Z" fill="#023465"/>
<path d="M56.1072 0.0568542L61.3828 9.38982L51.4232 26.2182H40.3789L56.1072 0.0568542Z" fill="#023465"/>
<path d="M40.3301 26.2182H51.3744L62.7145 45.0292L57.0445 54.6039L40.3301 26.2182Z" fill="#064981"/>
<path d="M43.7344 0.0568542H56.1099L49.8482 10.4053L43.7344 0.0568542Z" fill="#023465"/>
<path d="M19.3304 25.6379C23.1427 25.6379 26.2331 22.6068 26.2331 18.8678C26.2331 15.1289 23.1427 12.0978 19.3304 12.0978C15.5182 12.0978 12.4277 15.1289 12.4277 18.8678C12.4277 22.6068 15.5182 25.6379 19.3304 25.6379Z" fill="#FF0000"/>
<path d="M16.7148 9.38982L22.1877 0.0568542H42.3534L47.8263 9.24475L16.7148 9.38982Z" fill="#C80000"/>
<path d="M0 37.969L5.71938 28.3943H25.3427L30.8156 37.8723L0 37.969Z" fill="#C80000"/>
<path d="M30.8146 37.8723L25.3418 28.3942L36.5833 9.29308L47.8249 9.24472L30.8146 37.8723Z" fill="#FF0000"/>
<path d="M6.50735 48.0273L0.294922 37.969L11.8323 37.9207L6.50735 48.0273Z" fill="#C80000"/>
</svg>
