<svg width="211" height="59" viewBox="0 0 211 59" fill="none" xmlns="http://www.w3.org/2000/svg">
<path d="M103.836 3.34764C106.456 1.92071 109.305 1.18423 112.384 1.18423C118.266 1.18423 123.183 3.16352 127.135 7.12208C131.087 11.0806 133.063 16.1439 133.063 22.358C133.063 27.8815 131.133 32.6226 127.227 36.6272C123.321 40.5858 118.633 42.5651 113.165 42.5651C109.259 42.5651 105.904 41.7365 103.147 40.1255C100.206 38.3763 97.8625 35.7066 96.1163 32.1163L98.7356 30.8735C99.8385 33.4972 101.585 35.5685 103.928 37.1335C106.272 38.6985 108.891 39.4811 111.695 39.4811C115.922 39.4811 119.277 37.7319 121.758 34.1876C124.01 31.0116 125.113 27.099 125.113 22.45H107.926V19.9184H125.067C125.067 14.8091 123.78 10.8505 121.253 7.99665C118.725 5.1428 115.233 3.71588 110.775 3.71588C108.386 3.71588 106.226 4.45235 104.204 5.92531C102.78 6.93796 101.217 8.59504 99.4709 10.8505L97.2651 9.33152C99.0113 6.79988 101.171 4.82059 103.836 3.34764Z" fill="#3EB4F0"/>
<path d="M139.175 41.4603V15.3614H150.249C152.593 15.3614 154.569 15.9137 156.177 17.0645C157.832 18.2152 158.613 19.8263 158.613 21.9437C158.613 23.4626 158.108 24.7515 157.142 25.8102C156.407 26.5927 155.396 27.1911 154.11 27.6053C155.856 28.2037 157.142 28.9862 158.016 29.9989C159.027 31.1496 159.532 32.5765 159.532 34.2797C159.532 36.6272 158.613 38.4223 156.729 39.7112C155.029 40.9079 152.777 41.5063 149.928 41.5063H139.175V41.4603ZM144.643 17.2486V26.6847H148.273C150.02 26.6847 151.306 26.3165 152.042 25.534C152.777 24.7515 153.19 23.5547 153.19 21.9437C153.19 18.8136 151.582 17.2486 148.319 17.2486H144.643ZM144.643 28.5719V39.527H147.308C149.56 39.527 151.306 39.1128 152.455 38.2842C153.604 37.4557 154.201 36.1208 154.201 34.3257C154.201 32.3464 153.604 30.9195 152.363 29.9528C151.169 29.0322 149.468 28.5719 147.354 28.5719H144.643Z" fill="#2271B3"/>
<path d="M165.966 16.3741C167.666 15.2693 169.688 14.717 171.986 14.717C175.8 14.717 178.97 16.0979 181.498 18.8597C183.842 21.4834 185.036 24.6594 185.036 28.3878C185.036 32.4385 183.842 35.7986 181.406 38.3303C179.016 40.9079 175.938 42.1968 172.215 42.1968C169.504 42.1968 167.206 41.5063 165.276 40.1715C163.806 39.1588 162.519 37.5938 161.416 35.5685L163.346 34.74C164.541 36.5812 165.506 37.824 166.241 38.4684C167.528 39.6651 169.044 40.2635 170.791 40.2635C173.732 40.2635 175.8 38.9747 177.132 36.351C178.097 34.4177 178.603 31.8401 178.603 28.572H168.309V26.6847H178.695C178.695 23.969 178.097 21.6675 176.903 19.8263C175.57 17.7089 173.686 16.6963 171.204 16.6963C169.642 16.6963 168.263 17.1105 167.068 17.9851C165.874 18.8597 164.909 20.0564 164.173 21.6215L161.922 20.5167C163.392 18.5835 164.725 17.2026 165.966 16.3741Z" fill="#2271B3"/>
<path d="M195.652 41.4603H190.184V15.3614H195.606V26.3165H205.348V15.3614H210.863V41.4603H205.44V28.8942H195.698V41.4603H195.652Z" fill="#2271B3"/>
<path d="M97.679 50.8044V56.1899H96.6221V49.8838H100.942V50.8044H97.679Z" fill="#2271B3"/>
<path d="M103.653 50.8044C104.158 50.0219 104.847 49.6996 105.766 49.6996C107.513 49.6996 108.616 50.9885 108.616 53.0138C108.616 55.0391 107.513 56.374 105.812 56.374C104.893 56.374 104.25 56.0518 103.699 55.3153V58.6294H102.642V49.8838H103.607V50.8044H103.653ZM103.653 53.0138C103.653 54.5328 104.388 55.4534 105.629 55.4534C106.823 55.4534 107.559 54.5328 107.559 53.0138C107.559 51.4948 106.823 50.5742 105.629 50.5742C104.388 50.5742 103.653 51.4948 103.653 53.0138Z" fill="#2271B3"/>
<path d="M113.165 57.0184C112.843 57.893 112.476 58.7675 111.373 58.7675C111.097 58.7675 110.867 58.7215 110.592 58.6755V57.7549C110.913 57.8469 111.097 57.893 111.281 57.893C111.603 57.893 111.878 57.6628 112.016 57.3866L112.522 56.2359L110.04 49.9758H111.189L113.073 54.9931L114.819 49.9758H115.922L113.165 57.0184Z" fill="#2271B3"/>
<path d="M117.944 56.1899V49.8838H123.137V56.1899H122.08V50.8044H118.955V56.1899H117.944Z" fill="#2271B3"/>
<path d="M125.803 56.1899V49.8838H130.995V56.1899H129.985V50.8044H126.86V56.1899H125.803Z" fill="#2271B3"/>
<path d="M139.404 56.1898C139.175 56.2819 138.945 56.3279 138.715 56.3279C138.118 56.3279 137.796 56.0057 137.796 55.4073C137.153 56.0978 136.509 56.42 135.498 56.42C134.258 56.42 133.476 55.7295 133.476 54.6248C133.476 53.5201 134.212 52.8297 135.728 52.6455C137.245 52.4614 137.75 52.5075 137.75 51.6329C137.75 50.9424 137.245 50.5742 136.326 50.5742C135.361 50.5742 134.855 50.9424 134.763 51.863H133.752C133.798 50.5282 134.763 49.7457 136.372 49.7457C137.199 49.7457 137.934 49.9758 138.348 50.3441C138.807 50.7583 138.761 51.4027 138.761 52.0011C138.761 52.9217 138.715 53.8884 138.715 54.8089C138.715 55.2692 138.807 55.4534 139.129 55.4534C139.221 55.4534 139.267 55.4534 139.404 55.4073V56.1898ZM136.372 53.29C135.636 53.382 134.579 53.4741 134.579 54.4867C134.579 55.1312 135.039 55.5454 135.82 55.5454C136.785 55.5454 137.75 54.855 137.75 54.0725V52.9217C137.337 53.2439 136.831 53.2439 136.372 53.29Z" fill="#2271B3"/>
<path d="M153.099 56.1899L150.709 53.29L150.066 53.8884V56.1899H149.009V49.8838H150.066V52.5075L152.731 49.8838H153.88L151.398 52.4154L154.385 56.1899H153.099Z" fill="#2271B3"/>
<path d="M161.921 53.0138C161.921 55.1312 160.818 56.374 158.888 56.374C156.958 56.374 155.81 55.1312 155.81 53.0598C155.81 50.9885 157.004 49.6996 158.888 49.6996C160.773 49.6996 161.921 50.9424 161.921 53.0138ZM156.866 53.0598C156.866 54.6248 157.602 55.5454 158.888 55.5454C160.129 55.5454 160.818 54.6248 160.818 53.0598C160.818 51.5408 160.083 50.6202 158.842 50.6202C157.648 50.5742 156.866 51.5408 156.866 53.0598Z" fill="#2271B3"/>
<path d="M170.102 56.1899V51.2187H170.056L168.172 56.1899H167.207L165.322 51.2187H165.368V56.1899H164.312V49.8838H165.782L167.712 54.9931H167.758L169.688 49.8838H171.159V56.1899H170.102Z" fill="#2271B3"/>
<path d="M174.1 56.1899V49.8838H179.292V56.1899H178.235V50.8044H175.111V56.1899H174.1Z" fill="#2271B3"/>
<path d="M187.61 56.1898C187.38 56.2819 187.15 56.3279 186.92 56.3279C186.323 56.3279 186.001 56.0057 186.001 55.4073C185.358 56.0978 184.715 56.42 183.704 56.42C182.463 56.42 181.682 55.7295 181.682 54.6248C181.682 53.5201 182.417 52.8297 183.933 52.6455C185.45 52.4614 185.955 52.5075 185.955 51.6329C185.955 50.9424 185.45 50.5742 184.531 50.5742C183.566 50.5742 183.06 50.9424 182.968 51.863H181.957C182.003 50.5282 182.968 49.7457 184.577 49.7457C185.404 49.7457 186.139 49.9758 186.553 50.3441C187.012 50.7583 186.966 51.4027 186.966 52.0011C186.966 52.9217 186.92 53.8884 186.92 54.8089C186.92 55.2692 187.012 55.4534 187.334 55.4534C187.426 55.4534 187.472 55.4534 187.61 55.4073V56.1898ZM184.577 53.29C183.841 53.382 182.785 53.4741 182.785 54.4867C182.785 55.1312 183.244 55.5454 184.025 55.5454C184.99 55.5454 185.955 54.855 185.955 54.0725V52.9217C185.542 53.2439 185.036 53.2439 184.577 53.29Z" fill="#2271B3"/>
<path d="M189.907 56.1899V49.8838H190.964V52.3694H194.089V49.8838H195.146V56.1899H194.089V53.336H190.964V56.2359H189.907V56.1899Z" fill="#2271B3"/>
<path d="M197.811 56.1899V49.8838H198.868V55.0391H198.914L201.717 49.8838H203.05V56.1899H201.993V51.0345H201.947L199.144 56.1899H197.811Z" fill="#2271B3"/>
<path d="M205.762 56.1899V49.8838H206.819V55.0391H206.865L209.668 49.8838H211V56.1899H209.943V51.0345H209.898L207.094 56.1899H205.762ZM208.381 49.1933C207.37 49.1933 206.635 48.5029 206.543 47.4902H207.186C207.37 48.0886 207.784 48.4569 208.427 48.4569C209.07 48.4569 209.438 48.0886 209.668 47.4902H210.311C210.035 48.5029 209.438 49.1933 208.381 49.1933Z" fill="#2271B3"/>
<path d="M43.7306 31.07L30.7656 44.0565L43.5681 56.8803L56.5331 43.8937L43.7306 31.07Z" fill="#2271B3"/>
<path d="M44.2824 1.42247e-05L31.3174 12.9865L44.1199 25.8103L57.0849 12.8238L44.2824 1.42247e-05Z" fill="#1D334A"/>
<path d="M59.9289 15.7054L46.9639 28.6919L59.7664 41.5157L72.7314 28.5291L59.9289 15.7054Z" fill="#025669"/>
<path d="M75.5998 31.4015L62.6348 44.388L75.4373 57.2118L88.4023 44.2253L75.5998 31.4015Z" fill="#2271B3"/>
<path d="M28.5431 15.7974L15.5781 28.784L28.3806 41.6078L41.3456 28.6212L28.5431 15.7974Z" fill="#025669"/>
<path d="M12.965 31.4015L0 44.388L12.8025 57.2118L25.7675 44.2253L12.965 31.4015Z" fill="#2271B3"/>
</svg>
