<svg width="32" height="26" viewBox="0 0 32 26" fill="none" xmlns="http://www.w3.org/2000/svg">
<path d="M20.658 0.223633L17.6977 5.3079H19.7276L16.0061 11.7405L16.9365 13.2854L21.5601 5.3079H21.7293H23.59L18.8818 13.454L19.8967 15.2236L25.1124 6.20678L26.0428 7.77981L20.9399 16.5719L21.983 18.2573L29.4824 5.3079L26.5503 0.223633H20.658Z" fill="#006197"/>
<path d="M3.46026 10.3922H9.35259L8.33764 8.6506H15.7806L16.6828 7.04948H7.40727L7.35089 6.93712L6.39233 5.3079H15.8652L16.8801 3.53824H6.42052L7.3227 1.96521H17.5004L18.4871 0.223633H3.46026L0.5 5.3079L3.46026 10.3922Z" fill="#006197"/>
<path d="M20.8835 20.1393L17.9514 15.055L16.9365 16.7966L13.215 10.3921L11.3825 10.4202L16.0061 18.3977L15.9497 18.5382L14.9912 20.1393L10.2829 11.9932H8.25306L13.4688 21.0101H11.6362L6.56148 12.2179L4.53159 12.2741L12.0591 25.2235H17.9514L20.8835 20.1393Z" fill="#006197"/>
</svg>
