<svg width="31" height="25" viewBox="0 0 31 25" fill="none" xmlns="http://www.w3.org/2000/svg">
<path d="M13.3838 13.2514L9.41602 17.2192L13.3274 21.1306L17.2952 17.1628L13.3838 13.2514Z" fill="#2271B3"/>
<path d="M13.5469 3.77096L9.5791 7.73877L13.4905 11.6502L17.4583 7.68236L13.5469 3.77096Z" fill="#1D334A"/>
<path d="M18.335 8.55563L14.3672 12.5234L18.2786 16.4348L22.2464 12.467L18.335 8.55563Z" fill="#025669"/>
<path d="M23.1394 13.3496L19.1716 17.3174L23.083 21.2288L27.0508 17.261L23.1394 13.3496Z" fill="#2271B3"/>
<path d="M8.73466 8.58492L4.76685 12.5527L8.67824 16.4641L12.6461 12.4963L8.73466 8.58492Z" fill="#025669"/>
<path d="M3.96781 13.3432L0 17.311L3.9114 21.2224L7.87921 17.2546L3.96781 13.3432Z" fill="#2271B3"/>
</svg>
