<svg width="32" height="26" viewBox="0 0 32 26" fill="none" xmlns="http://www.w3.org/2000/svg">
<path d="M27.7241 25.2234C27.5842 25.2234 27.3978 25.1764 27.1647 25.1295C26.1858 24.8481 25.4865 24.0038 25.4865 22.9719V19.5479C25.4865 18.9382 25.0203 18.4691 24.4143 18.4691H18.3542C17.7482 18.4691 17.2354 18.9851 17.2354 19.5479V21.8462C17.2354 22.3622 17.6083 22.8312 18.0745 22.925C18.1211 22.925 18.1677 22.925 18.1677 22.925C18.2143 22.925 18.2609 22.9719 18.3075 22.9719H22.7361C23.2489 23.1127 23.5752 23.5348 23.5752 24.0976C23.5752 24.426 23.482 24.6605 23.2489 24.895C23.0158 25.1295 22.7361 25.2234 22.4564 25.2234H15.7903C14.7181 25.2234 13.6925 24.8481 12.9 24.1446C11.8745 23.2534 11.3151 22.0339 11.3151 20.7205C11.3151 19.5479 11.7812 18.3753 12.6203 17.5311C13.4594 16.6868 14.6248 16.2177 15.7903 16.2177H24.4609C24.7873 16.2177 25.067 16.1239 25.2534 15.8894C25.4865 15.6549 25.5797 15.4204 25.5797 15.092C25.5797 14.6699 25.3 14.2478 24.8805 14.0601C24.7873 14.0132 24.6008 14.0132 24.5076 14.0132H14.2985C13.8324 13.8725 13.506 13.4504 13.506 12.9344V12.7468C13.506 12.1371 14.0188 11.6211 14.6248 11.6211H25.0203C25.0203 11.6211 25.3 11.5742 25.7196 11.5742C27.3978 11.5742 31.267 12.0433 31.5 16.3585V16.4992V22.925C31.5 24.1446 30.4745 25.1764 29.2624 25.1764H27.7241V25.2234Z" fill="#0426C4"/>
<path d="M5.11504 14.0135C2.55113 14.0135 0.5 11.9497 0.5 9.36996C0.5 8.10355 1.01278 6.93094 1.85188 6.08666C2.7376 5.19548 3.85639 4.72644 5.11504 4.72644H13.7857C14.0654 4.72644 14.3451 4.63263 14.5316 4.39811C14.7181 4.21049 14.8579 3.92907 14.8579 3.64764C14.8579 3.03789 14.3917 2.56884 13.7857 2.56884H3.57669C2.92406 2.56884 2.41128 2.0529 2.41128 1.39624C2.41128 1.06791 2.55113 0.786484 2.7376 0.551963C2.97068 0.364346 3.25038 0.223633 3.57669 0.223633H16.5361C18.8203 0.223633 20.685 2.0998 20.685 4.39811V9.08853C20.5917 9.7921 20.0323 10.308 19.3331 10.308H16.0233C15.2775 10.308 14.6714 9.69829 14.6714 8.94782V8.43188C14.6714 7.6345 14.0188 6.97784 13.2263 6.97784H8.00527C7.63234 6.97784 7.30602 7.11856 7.02632 7.39998C6.74662 7.6345 6.56015 8.05664 6.56015 8.47878V10.1673C6.56015 10.9647 7.21279 11.6683 8.00527 11.6683H11.8744C12.5271 11.6683 13.0399 12.1842 13.0399 12.8409C13.0399 13.1692 12.9 13.4506 12.7135 13.6852C12.4805 13.9197 12.2008 14.0135 11.8744 14.0135H5.11504Z" fill="#FDC11C"/>
<path d="M9.40366 24.1441C9.26381 24.1441 9.07735 24.0972 8.9375 24.0034L3.01719 20.6263C2.73749 20.4387 2.55103 20.1573 2.55103 19.8289C2.55103 19.5006 2.73749 19.2192 3.01719 19.0315L8.9375 15.5606C9.07735 15.4668 9.2172 15.4199 9.40366 15.4199C9.91644 15.4199 10.336 15.8421 10.336 16.3111V23.206C10.336 23.722 9.91644 24.1441 9.40366 24.1441Z" fill="#0426C4"/>
<path d="M22.9226 9.79157C22.4098 9.79157 21.9902 9.36943 21.9902 8.90039V1.95856C21.9902 1.44262 22.4098 1.06738 22.9226 1.06738C23.0624 1.06738 23.2489 1.11429 23.3887 1.2081L29.2624 4.67901C29.5421 4.81972 29.7286 5.14805 29.7286 5.47638C29.7286 5.80471 29.5421 6.03923 29.2624 6.17995L23.3421 9.65086C23.2023 9.74467 23.0624 9.79157 22.9226 9.79157Z" fill="#FDC11C"/>
</svg>
