<svg width="23" height="26" viewBox="0 0 23 26" fill="none" xmlns="http://www.w3.org/2000/svg">
<path d="M4.40992 10.9893H0V26.655H4.40992V10.9893Z" fill="#E30613"/>
<path d="M13.3291 14.1084H8.91919V26.6555H13.3291V14.1084Z" fill="#E30613"/>
<path d="M13.3291 8.24756H8.91919V14.1085H13.3291V8.24756Z" fill="#70706F"/>
<path d="M8.91823 21.9712H4.40967V26.6553H8.91823V21.9712Z" fill="#C00D0D"/>
<path d="M22.1649 17.2856H17.6472V26.6555H22.1649V17.2856Z" fill="#E30613"/>
<path d="M8.91812 5.66693L4.4126 3.37036V2.36475L8.91812 4.65977V5.66693Z" fill="#70706F"/>
<path d="M22.1651 5.0498H17.6353V17.2869H22.1651V5.0498Z" fill="#C7C7C6"/>
<path d="M22.1527 6.76336L18.7869 5.0498H17.6472V5.47395L22.1527 7.77206V6.76336Z" fill="#70706F"/>
<path d="M17.647 6.29932V7.30493L22.154 9.60304V8.59434L17.647 6.29932Z" fill="#70706F"/>
<path d="M17.647 9.1355L22.154 11.4336V10.4249L17.647 8.12988V9.1355Z" fill="#70706F"/>
<path d="M17.647 10.968L22.154 13.2646V12.2574L17.647 9.9624V10.968Z" fill="#70706F"/>
<path d="M17.647 12.7986L22.154 15.0952V14.088L17.647 11.793V12.7986Z" fill="#70706F"/>
<path d="M17.647 14.6296L22.154 16.9262V15.919L17.647 13.624V14.6296Z" fill="#70706F"/>
<path d="M17.647 16.4618L19.2647 17.2869H21.242L17.647 15.4546V16.4618Z" fill="#70706F"/>
<path d="M22.1519 5.0498H20.4878L22.1519 5.8981V5.0498Z" fill="#70706F"/>
<path d="M17.6353 2.00879H13.3286V21.9175H17.6353V2.00879Z" fill="#C7C7C6"/>
<path d="M17.6355 3.09461V4.10176L13.5291 2.00879H15.5064L17.6355 3.09461Z" fill="#70706F"/>
<path d="M17.6352 2.00879V2.20621L17.2495 2.00879H17.6352Z" fill="#70706F"/>
<path d="M17.6353 4.96366V5.97236L13.3286 3.77759V2.77197L17.6353 4.96366Z" fill="#70706F"/>
<path d="M17.6353 6.8363V7.84345L13.3286 5.64868V4.64307L17.6353 6.8363Z" fill="#70706F"/>
<path d="M17.6353 8.7069V9.71406L13.3286 7.51929V6.51367L17.6353 8.7069Z" fill="#70706F"/>
<path d="M17.6353 10.578V11.5852L13.3286 9.39038V8.38477L17.6353 10.578Z" fill="#70706F"/>
<path d="M17.6353 12.4491V13.4578L13.3286 11.2615V10.2559L17.6353 12.4491Z" fill="#70706F"/>
<path d="M17.6353 14.3197V15.3284L13.3286 13.1321V12.1265L17.6353 14.3197Z" fill="#70706F"/>
<path d="M17.6353 16.1908V17.1979L13.3286 15.0032V13.9976L17.6353 16.1908Z" fill="#70706F"/>
<path d="M17.6353 18.0599V19.0686L13.3286 16.8739V15.8667L17.6353 18.0599Z" fill="#70706F"/>
<path d="M17.6353 19.9326V20.9397L13.3286 18.745V17.7378L17.6353 19.9326Z" fill="#70706F"/>
<path d="M17.6353 21.8031V21.9172H15.8841L13.3286 20.6155V19.6099L17.6353 21.8031Z" fill="#70706F"/>
<path d="M8.92126 0.381348H4.40967V21.9712H8.92126V0.381348Z" fill="#C7C7C6"/>
<path d="M8.91788 7.65041L4.41235 5.3523V4.34668L8.91788 6.6417V7.65041Z" fill="#70706F"/>
<path d="M8.91788 9.63226L4.41235 7.33569V6.33008L8.91788 8.6251V9.63226Z" fill="#70706F"/>
<path d="M8.91788 11.6157L4.41235 9.31763V8.31201L8.91788 10.607V11.6157Z" fill="#70706F"/>
<path d="M8.91788 13.5981L4.41235 11.3015V10.2959L8.91788 12.5909V13.5981Z" fill="#70706F"/>
<path d="M8.91788 15.5811L4.41235 13.2845V12.2773L8.91788 14.5739V15.5811Z" fill="#70706F"/>
<path d="M8.91788 17.5634L4.41235 15.2668V14.2612L8.91788 16.5563V17.5634Z" fill="#70706F"/>
<path d="M8.91788 19.5468L4.41235 17.2502V16.2446L8.91788 18.5397V19.5468Z" fill="#70706F"/>
<path d="M8.91788 21.5303L4.41235 19.2322V18.2266L8.91788 20.5216V21.5303Z" fill="#70706F"/>
<path d="M7.87079 21.9713H5.89649L4.41235 21.214V20.21L7.87079 21.9713Z" fill="#70706F"/>
<path d="M8.91763 3.688L4.41211 1.38989V0.384277L8.91763 2.6793V3.688Z" fill="#70706F"/>
<path d="M8.91788 5.75173L4.41235 3.45516V2.2876L8.91788 4.58262V5.75173Z" fill="#70706F"/>
<path d="M8.918 0.692903V1.7016L6.3291 0.381348H8.30492L8.918 0.692903Z" fill="#70706F"/>
<path d="M17.6477 20.4473H13.3379V26.6552H17.6477V20.4473Z" fill="#C00D0D"/>
</svg>
