<svg width="27" height="24" viewBox="0 0 27 24" fill="none" xmlns="http://www.w3.org/2000/svg">
<path d="M12.6586 1.89844C12.6586 1.89844 15.0668 4.19776 14.8343 6.11661C14.6516 7.62192 13.6551 8.66406 12.3597 9.40844C11.0809 10.1528 8.49 11.4927 7.34405 12.3198C6.49704 12.9319 2.41146 15.4131 2.36163 21.1863L1.2655 17.1666L2.76023 10.6987L6.34756 7.72117L8.05819 5.58727L9.48648 4.23084L12.6586 1.89844Z" fill="url(#paint0_radial_1457_102846)"/>
<path d="M2.36164 21.2028C2.36164 21.2028 0.767264 13.974 7.79247 9.35887C12.5756 6.21591 13.3894 3.65192 13.107 2.59324C12.941 1.99774 12.2268 1.53456 11.7784 1.40223C10.5826 1.02177 9.65257 1.03831 7.99176 2.08045C5.91576 3.38725 -3.41796 15.1651 2.36164 21.2028Z" fill="url(#paint1_linear_1457_102846)"/>
<path d="M3.49098 20.0447C3.49098 20.0447 4.30478 16.8191 6.11505 16.0747C7.52674 15.4957 8.92181 15.8431 10.2006 16.604C11.4795 17.3484 13.9374 18.9364 15.2163 19.5319C16.1795 19.962 20.3481 22.2779 25.4302 19.4823L22.4574 22.4102L16.0799 24.296L11.712 22.6583L9.00485 22.2117L7.11154 21.6493L3.49098 20.0447Z" fill="#DBDBDB"/>
<path d="M25.4136 19.4665C25.4136 19.4665 19.8831 24.396 12.3929 20.5914C7.29422 17.9943 4.65354 18.5402 3.85635 19.3176C3.40794 19.7477 3.37472 20.6079 3.45776 21.0545C3.70688 22.2786 4.18851 23.0892 5.91575 23.999C8.10801 25.1734 22.9888 27.4562 25.4136 19.4665Z" fill="white"/>
<path d="M23.9853 18.8543C23.9853 18.8543 20.7966 19.8138 19.2188 18.6558C17.9898 17.746 17.5746 16.3731 17.5746 14.9008C17.5746 13.4286 17.6743 10.5172 17.5082 9.11118C17.3919 8.06904 17.2258 3.32152 12.2102 0.410156L16.2626 1.43575L21.1619 5.9186L21.9923 10.4842L23.0054 13.0151L23.4871 14.9339L23.9853 18.8543Z" fill="#DBDBDB"/>
<path d="M12.2102 0.426327C12.2102 0.426327 19.3018 2.6264 19.8665 10.9635C20.2485 16.6539 22.0754 18.6389 23.1549 18.9201C23.7528 19.069 24.5168 18.672 24.8489 18.3577C25.7624 17.5141 26.2274 16.687 26.1277 14.7516C26.0115 12.2868 20.3315 -1.60832 12.2102 0.426327Z" fill="white"/>
<path d="M11.9279 11.1786C14.8509 10.1034 15.9304 7.90332 15.9304 7.90332C15.9304 7.90332 16.7608 10.5004 16.1297 13.5937C15.4986 16.687 16.8771 18.5894 16.8771 18.5894C16.8771 18.5894 14.2696 17.9939 11.795 16.0254C9.33701 14.0734 6.94545 14.3712 6.94545 14.3712C6.94545 14.3712 8.95502 12.2704 11.9279 11.1786Z" fill="url(#paint2_radial_1457_102846)"/>
<path d="M3.49098 20.0447C3.49098 20.0447 4.30478 16.8191 6.11505 16.0747C7.52674 15.4957 8.92181 15.8431 10.2006 16.604C11.4795 17.3484 13.9374 18.9364 15.2163 19.5319C16.1795 19.962 20.3481 22.2779 25.4302 19.4823L22.4574 22.4102L16.0799 24.296L11.712 22.6583L9.00485 22.2117L7.11154 21.6493L3.49098 20.0447Z" fill="url(#paint3_radial_1457_102846)"/>
<path d="M25.4136 19.4665C25.4136 19.4665 19.8831 24.396 12.3929 20.5914C7.29422 17.9943 4.65354 18.5402 3.85635 19.3176C3.40794 19.7477 3.37472 20.6079 3.45776 21.0545C3.70688 22.2786 4.18851 23.0892 5.91575 23.999C8.10801 25.1734 22.9888 27.4562 25.4136 19.4665Z" fill="url(#paint4_linear_1457_102846)"/>
<path d="M23.9853 18.8543C23.9853 18.8543 20.7966 19.8138 19.2188 18.6558C17.9898 17.746 17.5746 16.3731 17.5746 14.9008C17.5746 13.4286 17.6743 10.5172 17.5082 9.11118C17.3919 8.06904 17.2258 3.32152 12.2102 0.410156L16.2626 1.43575L21.1619 5.9186L21.9923 10.4842L23.0054 13.0151L23.4871 14.9339L23.9853 18.8543Z" fill="url(#paint5_radial_1457_102846)"/>
<path d="M12.2102 0.426327C12.2102 0.426327 19.3018 2.6264 19.8665 10.9635C20.2485 16.6539 22.0754 18.6389 23.1549 18.9201C23.7528 19.069 24.5168 18.672 24.8489 18.3577C25.7624 17.5141 26.2274 16.687 26.1277 14.7516C26.0115 12.2868 20.3481 -1.60832 12.2102 0.426327Z" fill="url(#paint6_linear_1457_102846)"/>
<defs>
<radialGradient id="paint0_radial_1457_102846" cx="0" cy="0" r="1" gradientUnits="userSpaceOnUse" gradientTransform="translate(10.6374 10.2951) rotate(-35.6098) scale(6.49475 2.76249)">
<stop offset="0.00548095" stop-color="white"/>
<stop offset="0.211" stop-color="#F6F6F6"/>
<stop offset="0.5506" stop-color="#DDDDDD"/>
<stop offset="0.9802" stop-color="#B4B4B4"/>
<stop offset="1" stop-color="#B2B2B2"/>
</radialGradient>
<linearGradient id="paint1_linear_1457_102846" x1="0.46842" y1="21.3491" x2="9.65718" y2="2.66157" gradientUnits="userSpaceOnUse">
<stop stop-color="#9D9D9C"/>
<stop offset="1" stop-color="white"/>
</linearGradient>
<radialGradient id="paint2_radial_1457_102846" cx="0" cy="0" r="1" gradientUnits="userSpaceOnUse" gradientTransform="translate(15.38 9.62839) scale(7.76157 7.73064)">
<stop stop-color="white"/>
<stop offset="0.1386" stop-color="#F0F0F0"/>
<stop offset="0.5414" stop-color="#C5C5C5"/>
<stop offset="0.8403" stop-color="#A8A8A8"/>
<stop offset="1" stop-color="#9D9D9C"/>
</radialGradient>
<radialGradient id="paint3_radial_1457_102846" cx="0" cy="0" r="1" gradientUnits="userSpaceOnUse" gradientTransform="translate(11.3728 17.3827) rotate(-155.308) scale(6.49878 2.76082)">
<stop offset="0.00548095" stop-color="white"/>
<stop offset="0.2017" stop-color="#F9F9F9"/>
<stop offset="0.4592" stop-color="#E9E9E9"/>
<stop offset="0.7496" stop-color="#CECECE"/>
<stop offset="0.9876" stop-color="#B2B2B2"/>
</radialGradient>
<linearGradient id="paint4_linear_1457_102846" x1="26.4826" y1="21.0364" x2="5.62512" y2="22.2186" gradientUnits="userSpaceOnUse">
<stop stop-color="white"/>
<stop offset="0.1402" stop-color="#FAFAFA"/>
<stop offset="0.348" stop-color="#EBEBEB"/>
<stop offset="0.5978" stop-color="#D3D3D3"/>
<stop offset="0.8779" stop-color="#B0AFAF"/>
<stop offset="1" stop-color="#9D9D9C"/>
</linearGradient>
<radialGradient id="paint5_radial_1457_102846" cx="0" cy="0" r="1" gradientUnits="userSpaceOnUse" gradientTransform="translate(17.2842 12.6741) rotate(83.8335) scale(6.47821 2.77004)">
<stop offset="0.00548095" stop-color="white"/>
<stop offset="0.2084" stop-color="#F6F6F6"/>
<stop offset="0.5438" stop-color="#DDDDDD"/>
<stop offset="0.968" stop-color="#B4B4B4"/>
<stop offset="0.9876" stop-color="#B2B2B2"/>
</radialGradient>
<linearGradient id="paint6_linear_1457_102846" x1="13.0142" y1="-1.29054" x2="24.6784" y2="15.9716" gradientUnits="userSpaceOnUse">
<stop stop-color="#C6C6C6"/>
<stop offset="0.1988" stop-color="#CCCCCC"/>
<stop offset="0.4934" stop-color="#DBDBDB"/>
<stop offset="0.8459" stop-color="#F3F3F3"/>
<stop offset="1" stop-color="white"/>
</linearGradient>
</defs>
</svg>
