<svg width="22" height="12" viewBox="0 0 22 12" fill="none" xmlns="http://www.w3.org/2000/svg">
<path d="M10.664 11.9973C7.14933 11.9973 3.63467 11.9973 0.12 12C0.016 12 0 11.9707 0 11.8747C0.00266667 7.95733 0.00266667 4.04 0 0.12C0 0.016 0.0293333 0 0.125333 0C7.15467 0.00266667 14.184 0.00266667 21.2133 0C21.3173 0 21.3333 0.0293333 21.3333 0.125333C21.3307 4.04267 21.3307 7.96267 21.3333 11.88C21.3333 11.984 21.304 12 21.208 12C17.6933 11.9973 14.1787 11.9973 10.664 11.9973ZM16.8 10.368C16.8373 10.4107 16.8907 10.3973 16.9387 10.3973C17.304 10.3973 17.6667 10.392 18.032 10.4C18.16 10.4027 18.1867 10.3547 18.1867 10.2373C18.184 7.54933 18.184 4.86133 18.184 2.176C18.184 2.144 18.2 2.104 18.1573 2.06133C18.1573 2.13333 18.1573 2.192 18.1573 2.248C18.1573 4.896 18.1573 7.544 18.1573 10.1893C18.1573 10.248 18.1787 10.3147 18.1253 10.3653C18.128 10.312 18.1307 10.2587 18.1307 10.2053C18.1307 7.73333 18.1307 5.26133 18.1307 2.78667C18.1307 2.568 18.128 2.352 18.1333 2.13333C18.136 2.05333 18.112 2.02667 18.0293 2.02667C17.7307 2.032 17.4347 2.02933 17.136 2.02667C17.0667 2.02667 17.0347 2.05067 17.0133 2.11733C16.936 2.36 16.8267 2.58933 16.6827 2.79733C16.272 3.384 15.7333 3.81867 15.0907 4.13067C15.0827 4.136 15.0693 4.13867 15.0693 4.144C15.0667 4.60267 15.064 5.06133 15.064 5.51733C15.064 5.55733 15.0827 5.576 15.1227 5.544C15.416 5.42933 15.688 5.28267 15.9493 5.10933C16.2267 4.92533 16.4693 4.696 16.712 4.46933C16.7653 4.52533 16.744 4.59467 16.744 4.66133C16.744 6.49067 16.744 8.32 16.744 10.1493C16.744 10.1973 16.744 10.2453 16.744 10.2933C16.752 10.2933 16.76 10.2933 16.7707 10.2907C16.7707 10.2693 16.7707 10.248 16.7707 10.2267C16.7707 8.344 16.7707 6.46133 16.7707 4.57867C16.7707 4.53067 16.7787 4.48 16.7387 4.44C16.752 4.41867 16.7707 4.38133 16.7893 4.42133C16.8053 4.45333 16.7947 4.49867 16.7947 4.53867C16.7947 6.42667 16.7947 8.312 16.7947 10.2C16.7973 10.2613 16.8 10.3147 16.8 10.368ZM11.84 5.19467C11.8427 5.288 11.8213 5.38133 11.8533 5.472C11.9413 5.72 11.976 5.98133 11.992 6.24C12.016 6.63733 11.9307 7.02667 11.848 7.41333C11.7947 7.65867 11.72 7.89333 11.616 8.11733C11.584 8.184 11.5653 8.248 11.5707 8.32C11.56 8.34933 11.5493 8.37867 11.5333 8.40533C11.072 9.21333 10.3973 9.816 9.64 10.3333C9.504 10.4267 9.36267 10.5093 9.21067 10.6053C9.24267 10.6133 9.256 10.616 9.26667 10.616C10.04 10.6187 10.8133 10.6187 11.5867 10.624C11.6533 10.624 11.6933 10.5973 11.7307 10.5493C11.8933 10.344 12.0427 10.128 12.184 9.90933C12.944 8.73333 13.2373 7.45867 13.0347 6.064C12.8773 4.97867 12.4427 4.03733 11.688 3.24267C11.1093 2.632 10.4373 2.16 9.648 1.856C9.53867 1.81333 9.51733 1.84533 9.488 1.94133C9.14133 3.12 8.792 4.29867 8.44267 5.47467C8.30933 5.928 8.17333 6.38133 8.04 6.83733C7.936 7.192 7.82933 7.544 7.712 7.93333C7.67733 7.82933 7.65333 7.75733 7.632 7.688C7.07467 5.80533 6.51467 3.92 5.95733 2.03733C5.888 1.80533 5.88533 1.8 5.664 1.90133C3.84533 2.728 2.68 4.07467 2.38133 6.088C2.29067 6.70133 2.288 7.32 2.41067 7.93067C2.60533 8.89867 3.06667 9.74133 3.66133 10.52C3.72 10.5973 3.78133 10.632 3.88267 10.6293C4.616 10.6213 5.34933 10.624 6.08267 10.6187C6.11733 10.6187 6.16 10.6373 6.19467 10.592C5.90133 10.4187 5.62133 10.232 5.35467 10.0267C4.70933 9.52533 4.136 8.95733 3.78667 8.21067C3.36 7.29333 3.27733 6.33333 3.528 5.352C3.71733 4.608 4.104 3.97333 4.664 3.44533C5.02667 3.10133 5.408 3.19467 5.568 3.664C5.57333 3.67733 5.576 3.69067 5.58133 3.70133C5.69067 4.056 5.80267 4.41333 5.912 4.768C6.27467 5.93867 6.63733 7.10933 7 8.28C7.14133 8.73333 7.28 9.18667 7.41867 9.64C7.512 9.93867 7.60533 10.2373 7.70933 10.576C7.74133 10.4827 7.76 10.4267 7.776 10.368C7.85867 10.1013 7.93867 9.83467 8.02133 9.568C8.36533 8.45333 8.712 7.34133 9.05867 6.22667C9.328 5.35733 9.592 4.488 9.864 3.62133C9.98133 3.25067 10.304 3.13867 10.632 3.352C10.696 3.392 10.752 3.44267 10.8053 3.496C11.1013 3.78667 11.3493 4.11733 11.544 4.48267C11.672 4.70933 11.7867 4.94133 11.84 5.19467Z" fill="#C2013C"/>
<path d="M11.84 5.19487C11.784 4.94154 11.672 4.70954 11.552 4.48287C11.3574 4.11754 11.1094 3.78687 10.8134 3.49621C10.76 3.44287 10.7014 3.39487 10.64 3.35221C10.312 3.14154 9.98669 3.25087 9.87203 3.62154C9.60003 4.48821 9.33603 5.36021 9.06669 6.22687C8.72003 7.34421 8.37336 8.45621 8.02669 9.57087C7.94403 9.83754 7.86136 10.1042 7.78136 10.3709C7.76269 10.4269 7.74403 10.4829 7.71469 10.5789C7.61069 10.2429 7.51736 9.94421 7.42403 9.64287C7.28269 9.18954 7.14403 8.73621 7.00536 8.28288C6.64269 7.11221 6.28003 5.94154 5.91736 4.77087C5.80803 4.41621 5.69603 4.05887 5.58669 3.70421C5.58403 3.69087 5.57869 3.67754 5.57336 3.66687C5.41336 3.20021 5.03203 3.10687 4.66936 3.44821C4.10936 3.97621 3.72269 4.61087 3.53336 5.35487C3.28269 6.33354 3.36536 7.29621 3.79203 8.21354C4.14136 8.96287 4.71469 9.53087 5.36003 10.0295C5.62669 10.2375 5.90669 10.4215 6.20003 10.5949C6.16803 10.6375 6.12536 10.6215 6.08803 10.6215C5.35469 10.6242 4.62136 10.6242 3.88803 10.6322C3.78669 10.6322 3.72536 10.5975 3.66669 10.5229C3.07203 9.74421 2.61069 8.90154 2.41603 7.93354C2.29336 7.32287 2.29603 6.70421 2.38669 6.09087C2.68536 4.07487 3.85069 2.73087 5.66936 1.90421C5.88803 1.80554 5.89336 1.81087 5.96269 2.04021C6.52003 3.92287 7.08003 5.80821 7.63736 7.69087C7.65869 7.76287 7.68269 7.83221 7.71736 7.93621C7.83203 7.54954 7.93869 7.19487 8.04536 6.84021C8.17869 6.38687 8.31469 5.93354 8.44803 5.47754C8.79736 4.29887 9.14936 3.12287 9.49336 1.94421C9.52269 1.84821 9.54403 1.81621 9.65336 1.85887C10.4427 2.16287 11.1147 2.63754 11.6934 3.24554C12.448 4.04021 12.8827 4.98154 13.04 6.06687C13.2427 7.46154 12.9467 8.73621 12.1894 9.91221C12.048 10.1335 11.8987 10.3469 11.736 10.5522C11.696 10.6002 11.656 10.6269 11.592 10.6269C10.8187 10.6242 10.0454 10.6215 9.27203 10.6189C9.25869 10.6189 9.24803 10.6135 9.21603 10.6082C9.36803 10.5122 9.51203 10.4269 9.64536 10.3362C10.4027 9.81621 11.0774 9.21621 11.5387 8.40821C11.5547 8.38154 11.5627 8.35221 11.576 8.32288C11.6454 8.22421 11.6934 8.11221 11.7307 7.99754C11.7334 7.98954 11.736 7.98154 11.7387 7.97354C11.7467 7.95754 11.76 7.94421 11.7654 7.92821C11.9734 7.34421 12.064 6.74421 12.0267 6.12821C12.0027 5.81087 11.96 5.49621 11.84 5.19487Z" fill="#FCFAFB"/>
<path d="M16.712 4.47725C16.4694 4.70392 16.2267 4.93059 15.9494 5.11725C15.688 5.29059 15.416 5.43992 15.1227 5.55192C15.08 5.50925 15.0934 5.45325 15.0934 5.39992C15.0907 4.97859 15.0934 4.55725 15.0907 4.13592C15.7334 3.82392 16.272 3.38925 16.6827 2.80259C16.8294 2.59459 16.936 2.36525 17.0134 2.12259C17.0347 2.05592 17.064 2.02925 17.136 2.03192C17.4347 2.03459 17.7307 2.03725 18.0294 2.03192C18.112 2.03192 18.136 2.05592 18.1334 2.13859C18.128 2.35725 18.1307 2.57325 18.1307 2.79192C18.1307 5.26392 18.1307 7.73592 18.1307 10.2106C18.1307 10.2639 18.128 10.3173 18.1254 10.3706C17.6827 10.3706 17.2427 10.3706 16.8 10.3706C16.7974 10.3173 16.7947 10.2639 16.7947 10.2106C16.7947 8.32259 16.7947 6.43725 16.7947 4.54925C16.7947 4.50925 16.8054 4.46392 16.7894 4.43192C16.768 4.39192 16.752 4.42925 16.7387 4.45059C16.7307 4.45859 16.72 4.46659 16.712 4.47725Z" fill="#FDFCFC"/>
<path d="M16.8 10.368C17.2427 10.368 17.6827 10.368 18.1254 10.368C18.1787 10.3173 18.1574 10.2506 18.1574 10.192C18.1574 7.54396 18.1574 4.89596 18.1574 2.25063C18.1574 2.19463 18.1574 2.13596 18.1574 2.06396C18.1974 2.10663 18.184 2.14396 18.184 2.17863C18.184 4.86663 18.184 7.55463 18.1867 10.24C18.1867 10.3573 18.16 10.4053 18.032 10.4026C17.6667 10.3946 17.304 10.4 16.9387 10.4C16.8907 10.3973 16.84 10.4106 16.8 10.368Z" fill="#AE0D28"/>
<path d="M11.84 5.19482C11.9573 5.49349 12.0027 5.81082 12.0213 6.12816C12.0587 6.74416 11.968 7.34682 11.76 7.92816C11.7547 7.94416 11.7413 7.95749 11.7333 7.97349C11.7307 7.98149 11.728 7.98949 11.7253 7.99749C11.6907 8.11216 11.6427 8.22416 11.5707 8.32282C11.5627 8.25082 11.584 8.18682 11.616 8.12016C11.72 7.89349 11.7947 7.66149 11.848 7.41616C11.9307 7.02682 12.016 6.64016 11.992 6.24282C11.976 5.98416 11.9413 5.72282 11.8533 5.47482C11.824 5.38416 11.8453 5.28816 11.84 5.19482Z" fill="#AE0D28"/>
<path d="M16.712 4.47758C16.72 4.46691 16.7307 4.45891 16.7387 4.44824C16.776 4.48824 16.7707 4.53891 16.7707 4.58691C16.7707 6.46958 16.7707 8.35224 16.7707 10.2349C16.7707 10.2562 16.7707 10.2776 16.7707 10.2989C16.7627 10.2989 16.7547 10.2989 16.744 10.3016C16.744 10.2536 16.744 10.2056 16.744 10.1576C16.744 8.32824 16.744 6.49891 16.744 4.66958C16.744 4.60558 16.7654 4.53358 16.712 4.47758Z" fill="#A6052A"/>
<path d="M15.0906 4.13623C15.0906 4.55756 15.0906 4.9789 15.0933 5.40023C15.0933 5.4509 15.08 5.5069 15.1226 5.55223C15.0853 5.58423 15.064 5.56556 15.064 5.52556C15.064 5.0669 15.0666 4.60823 15.0693 4.15223C15.072 4.1469 15.0826 4.14156 15.0906 4.13623Z" fill="#FEC0CE"/>
<path d="M11.728 8.00007C11.7307 7.99207 11.7334 7.98407 11.736 7.97607C11.7334 7.98141 11.7307 7.99207 11.728 8.00007Z" fill="#C2013C"/>
</svg>
