<svg width="22" height="12" viewBox="0 0 22 12" fill="none" xmlns="http://www.w3.org/2000/svg">
<path d="M13.0944 6.10133C12.9688 5.00267 12.5441 4.03467 11.7908 3.21867C11.1925 2.57067 10.4899 2.072 9.66185 1.75733C9.58438 1.728 9.55767 1.73867 9.53363 1.82133C8.94863 3.8 8.36096 5.77867 7.77329 7.75467C7.76527 7.78133 7.76795 7.816 7.73055 7.83467C7.72253 7.808 7.71452 7.78133 7.70651 7.75467C7.11616 5.77067 6.52582 3.78933 5.93815 1.80533C5.91678 1.736 5.89808 1.728 5.8313 1.752C5.25966 1.96 4.74945 2.272 4.28199 2.656C3.61952 3.19733 3.1013 3.848 2.76473 4.63733C2.50829 5.23733 2.3774 5.86133 2.34801 6.50933C2.32397 7.00533 2.33733 7.49867 2.45219 7.984C2.67658 8.928 3.13336 9.752 3.72904 10.5067C3.7611 10.5467 3.79849 10.5547 3.8439 10.552C4.54377 10.5493 5.24363 10.5493 5.94349 10.5493H6.23466C6.23733 10.544 6.23733 10.536 6.24 10.528C6.22664 10.52 6.21329 10.512 6.19726 10.504C5.60959 10.16 5.07801 9.74933 4.60253 9.26133C3.67027 8.30667 3.30164 7.15467 3.43521 5.84533C3.53404 4.86933 3.97212 4.04533 4.67733 3.36267C4.77349 3.26933 4.88568 3.20533 5.01658 3.17333C5.20356 3.128 5.36651 3.18667 5.4787 3.34133C5.53747 3.424 5.57219 3.51733 5.60158 3.61333C6.30411 5.87733 7.00664 8.144 7.70918 10.408C7.71719 10.432 7.72521 10.4533 7.74123 10.4933C7.75726 10.448 7.76795 10.4187 7.77596 10.3893C8.47849 8.12533 9.18103 5.85867 9.88356 3.59467C9.91295 3.504 9.945 3.416 10.0038 3.33867C10.0999 3.21067 10.2228 3.14667 10.3858 3.16C10.5514 3.17333 10.6876 3.25333 10.8051 3.36267C10.9066 3.45333 11.0001 3.55467 11.0856 3.65867C11.8843 4.61333 12.1942 5.70667 12.0259 6.93867C11.9244 7.67467 11.6519 8.336 11.1818 8.912C10.6555 9.55467 10.0198 10.0667 9.30658 10.4907C9.28253 10.504 9.25315 10.512 9.23445 10.5413C9.24781 10.544 9.25048 10.5467 9.25582 10.5467C10.0572 10.5493 10.8559 10.5493 11.6546 10.552C11.6973 10.552 11.7214 10.536 11.7454 10.504C12.3144 9.78667 12.7551 9 12.9902 8.10933C13.1692 7.45067 13.1718 6.77867 13.0944 6.10133ZM19.2997 7.11467C19.2997 7.05333 19.2863 7.032 19.2222 7.03467C19.0192 7.04 18.8162 7.032 18.6132 7.03733C18.5303 7.04 18.5063 7.02133 18.5063 6.93333C18.509 6.09067 18.509 5.248 18.509 4.40533C18.509 3.552 18.509 2.69867 18.509 1.84533C18.509 1.78133 18.4956 1.76 18.4262 1.76C18.1403 1.76533 17.8519 1.76533 17.566 1.76C17.5019 1.76 17.4699 1.77867 17.4378 1.83733C16.5403 3.54933 15.6427 5.264 14.7452 6.97333C14.7212 7.01867 14.7105 7.064 14.7105 7.11733C14.7105 7.52533 14.7132 7.936 14.7078 8.344C14.7078 8.424 14.7319 8.43733 14.8066 8.43733C15.6134 8.43467 16.4174 8.43733 17.2241 8.43467C17.3016 8.43467 17.3256 8.45067 17.3256 8.53333C17.3203 9.02933 17.3256 9.52267 17.3229 10.0187C17.3229 10.0907 17.3363 10.1147 17.4138 10.112C17.745 10.1067 18.0762 10.1067 18.4075 10.112C18.4849 10.112 18.5116 10.096 18.5116 10.0133C18.509 9.51467 18.5116 9.01867 18.509 8.52C18.509 8.456 18.525 8.43467 18.5918 8.43733C18.8001 8.44267 19.0085 8.43733 19.2195 8.44C19.2836 8.44 19.305 8.42667 19.305 8.36C19.297 7.944 19.297 7.528 19.2997 7.11467ZM0 0C0 4 0 8 0 12H21.3699V0H0Z" fill="#E97125"/>
<path d="M6.23464 10.5491C6.13847 10.5491 6.04231 10.5491 5.94347 10.5491C5.24361 10.5491 4.54375 10.5518 3.84388 10.5544C3.79847 10.5544 3.76108 10.5491 3.72902 10.5091C3.13334 9.75444 2.67656 8.92777 2.45217 7.98644C2.33731 7.50111 2.32395 7.00511 2.34799 6.50911C2.38005 5.86377 2.51094 5.23711 2.76471 4.63977C3.10395 3.85044 3.6195 3.19977 4.28197 2.65844C4.74943 2.27444 5.25964 1.96244 5.83128 1.75444C5.89806 1.73044 5.91676 1.73844 5.93813 1.80777C6.5258 3.79177 7.11614 5.77311 7.70649 7.75711C7.7145 7.78377 7.72251 7.81044 7.73053 7.83711C7.76793 7.82111 7.76525 7.78377 7.77327 7.75711C8.36094 5.77844 8.94861 3.80244 9.53361 1.82377C9.55765 1.74111 9.58436 1.73044 9.66183 1.75977C10.4899 2.07444 11.1924 2.57311 11.7908 3.22111C12.5441 4.03711 12.9688 5.00244 13.0944 6.10377C13.1718 6.77844 13.1692 7.45311 12.9929 8.11711C12.7578 9.00777 12.317 9.79177 11.7481 10.5118C11.724 10.5411 11.7 10.5598 11.6572 10.5598C10.8585 10.5571 10.0572 10.5544 9.25847 10.5544C9.25313 10.5544 9.24779 10.5518 9.2371 10.5491C9.25313 10.5198 9.28519 10.5118 9.30923 10.4984C10.0198 10.0744 10.6582 9.56511 11.1844 8.91977C11.6546 8.34111 11.9297 7.68244 12.0285 6.94644C12.1968 5.71444 11.8843 4.62377 11.0883 3.66911C11.0001 3.56511 10.9066 3.46377 10.8078 3.37311C10.6876 3.26377 10.554 3.18377 10.3884 3.17044C10.2255 3.15711 10.1026 3.22111 10.0064 3.34911C9.95032 3.42644 9.9156 3.51444 9.88621 3.60511C9.18368 5.86911 8.48114 8.13577 7.77861 10.3998C7.7706 10.4291 7.75991 10.4558 7.74388 10.5038C7.73053 10.4638 7.71984 10.4424 7.71183 10.4184C7.00929 8.15444 6.30676 5.88777 5.60423 3.62377C5.57484 3.52777 5.54012 3.43444 5.48135 3.35177C5.36916 3.19711 5.20354 3.13844 5.01923 3.18377C4.88834 3.21577 4.77614 3.28244 4.67998 3.37311C3.97477 4.05577 3.53669 4.87977 3.43786 5.85577C3.3043 7.16511 3.67293 8.31711 4.60519 9.27177C5.08066 9.75977 5.61491 10.1704 6.19991 10.5144C6.21327 10.5224 6.22662 10.5304 6.24265 10.5384C6.23731 10.5358 6.23464 10.5438 6.23464 10.5491Z" fill="#FEFDFD"/>
<path d="M19.2997 7.11443C19.2997 7.0531 19.2863 7.03176 19.2222 7.03443C19.0192 7.03976 18.8162 7.03176 18.6132 7.0371C18.5304 7.03977 18.5063 7.0211 18.5063 6.9331C18.509 6.09043 18.509 5.24777 18.509 4.4051C18.509 3.55177 18.509 2.69843 18.509 1.8451C18.509 1.7811 18.4956 1.75977 18.4262 1.75977C18.1404 1.7651 17.8519 1.7651 17.566 1.75977C17.5019 1.75977 17.4699 1.77843 17.4378 1.8371C16.5403 3.5491 15.6428 5.26377 14.7452 6.9731C14.7212 7.01843 14.7105 7.06377 14.7105 7.1171C14.7105 7.5251 14.7132 7.93577 14.7078 8.34377C14.7078 8.42377 14.7319 8.4371 14.8067 8.4371C15.6134 8.43443 16.4174 8.4371 17.2241 8.43443C17.3016 8.43443 17.3256 8.45043 17.3256 8.5331C17.3203 9.0291 17.3256 9.52243 17.323 10.0184C17.323 10.0904 17.3363 10.1144 17.4138 10.1118C17.745 10.1064 18.0762 10.1064 18.4075 10.1118C18.4849 10.1118 18.5117 10.0958 18.5117 10.0131C18.509 9.51443 18.5117 9.01843 18.509 8.51977C18.509 8.45577 18.525 8.43443 18.5918 8.4371C18.8002 8.44243 19.0085 8.4371 19.2195 8.43977C19.2836 8.43977 19.305 8.42643 19.305 8.35977C19.297 7.94377 19.297 7.52777 19.2997 7.11443ZM17.2402 7.0371C16.8074 7.03443 16.3773 7.03443 15.9446 7.0371C15.8832 7.0371 15.8591 7.03443 15.8939 6.96243C16.3586 6.06643 16.8208 5.17043 17.2829 4.27443C17.2909 4.25843 17.3016 4.2451 17.3256 4.20777V4.29577C17.3256 5.1811 17.3256 6.06377 17.3283 6.9491C17.3256 7.01843 17.3096 7.03977 17.2402 7.0371Z" fill="#FEFDFD"/>
<path d="M17.3256 4.21045C17.3256 4.25578 17.3256 4.27712 17.3256 4.29845C17.3256 5.18378 17.3256 6.06645 17.3283 6.95178C17.3283 7.02112 17.3122 7.03978 17.2401 7.03978C16.8074 7.03712 16.3773 7.03712 15.9446 7.03978C15.8831 7.03978 15.8564 7.03712 15.8938 6.96512C16.3586 6.06912 16.8207 5.17312 17.2829 4.27978C17.2909 4.26112 17.3016 4.24512 17.3256 4.21045Z" fill="#E97126"/>
</svg>
