<svg width="393" height="77" viewBox="0 0 393 77" fill="none" xmlns="http://www.w3.org/2000/svg">
<path d="M99.1134 22.8399V25.3099L96.9237 27.0199L99.1134 28.7774V31.2236L95.5407 28.3499V25.7374L99.1134 22.8399ZM94.6188 22.8399V25.2624L92.383 26.9962L94.6188 28.7774V31.2474L91 28.3024V25.7374L94.6188 22.8399Z" fill="#023465"/>
<path d="M115.476 16.4037V33.3136H112.595V25.7137H105.081V33.3136H102.2V16.4037H105.081V23.1249H112.595V16.4037H115.476Z" fill="#023465"/>
<path d="M125.956 16C128.276 16 130.159 16.8233 131.603 18.47C133.063 20.1008 133.793 22.2304 133.793 24.8587C133.793 27.487 133.063 29.6245 131.603 31.2711C130.143 32.902 128.246 33.7174 125.91 33.7174C123.559 33.7174 121.654 32.902 120.194 31.2711C118.749 29.6403 118.027 27.5028 118.027 24.8587C118.027 22.2937 118.734 20.18 120.148 18.5175C121.577 16.8392 123.513 16 125.956 16ZM125.91 18.4937C124.404 18.4937 123.198 19.0716 122.291 20.2275C121.385 21.3675 120.931 22.8954 120.931 24.8112C120.931 26.7745 121.377 28.3341 122.268 29.4899C123.175 30.6457 124.404 31.2236 125.956 31.2236C127.447 31.2236 128.638 30.6457 129.529 29.4899C130.435 28.3182 130.889 26.7666 130.889 24.8349C130.889 22.9033 130.435 21.3675 129.529 20.2275C128.638 19.0716 127.431 18.4937 125.91 18.4937Z" fill="#023465"/>
<path d="M136.369 16.4037H143.86C145.581 16.4037 146.895 16.7917 147.802 17.5675C148.724 18.3275 149.185 19.3566 149.185 20.655C149.185 21.4625 148.969 22.1908 148.539 22.8399C148.109 23.4733 147.54 23.9324 146.834 24.2174C147.786 24.4549 148.539 24.9299 149.092 25.6424C149.646 26.3549 149.922 27.2495 149.922 28.3262C149.922 29.8145 149.438 31.0178 148.47 31.9361C147.517 32.8545 146.273 33.3136 144.736 33.3136H136.369V16.4037ZM139.181 18.8025V23.4574H143.1C144.206 23.4574 145.02 23.2833 145.543 22.9349C146.065 22.5708 146.326 21.9691 146.326 21.13C146.326 20.18 146.05 19.5546 145.497 19.2537C144.959 18.9529 144.191 18.8025 143.192 18.8025H139.181ZM139.181 25.5949V30.8911H143.491C144.598 30.8911 145.466 30.7011 146.096 30.3211C146.726 29.9411 147.041 29.2524 147.041 28.2549C147.041 27.7007 146.941 27.2416 146.741 26.8774C146.557 26.4974 146.28 26.2203 145.912 26.0462C145.558 25.872 145.189 25.7533 144.805 25.6899C144.421 25.6266 143.968 25.5949 143.445 25.5949H139.181Z" fill="#023465"/>
<path d="M165.045 28.0649C165.045 29.7432 164.553 31.0415 163.57 31.9599C162.602 32.8624 161.226 33.3136 159.444 33.3136H152.644V16.4037H155.526V22.8637H159.444C161.242 22.8637 162.625 23.3149 163.593 24.2174C164.561 25.1199 165.045 26.4024 165.045 28.0649ZM162.164 28.1362C162.164 27.2495 161.91 26.5528 161.403 26.0462C160.896 25.5395 160.189 25.2862 159.283 25.2862H155.526V30.8911H159.329C161.219 30.8911 162.164 29.9728 162.164 28.1362ZM166.981 16.4037H169.862V33.3136H166.981V16.4037Z" fill="#023465"/>
<path d="M185.086 16.4037V18.8975H176.12V23.3862H184.441V25.7849H176.12V30.7724H185.224V33.3136H173.262V16.4037H185.086Z" fill="#023465"/>
<path d="M194.195 16.4037H201.686C203.407 16.4037 204.721 16.7917 205.628 17.5675C206.55 18.3275 207.011 19.3566 207.011 20.655C207.011 21.4625 206.796 22.1908 206.365 22.8399C205.935 23.4733 205.367 23.9324 204.66 24.2174C205.612 24.4549 206.365 24.9299 206.919 25.6424C207.472 26.3549 207.748 27.2495 207.748 28.3262C207.748 29.8145 207.264 31.0178 206.296 31.9361C205.344 32.8545 204.099 33.3136 202.562 33.3136H194.195V16.4037ZM197.007 18.8025V23.4574H200.926C202.032 23.4574 202.847 23.2833 203.369 22.9349C203.891 22.5708 204.153 21.9691 204.153 21.13C204.153 20.18 203.876 19.5546 203.323 19.2537C202.785 18.9529 202.017 18.8025 201.018 18.8025H197.007ZM197.007 25.5949V30.8911H201.318C202.424 30.8911 203.292 30.7011 203.922 30.3211C204.552 29.9411 204.867 29.2524 204.867 28.2549C204.867 27.7007 204.767 27.2416 204.568 26.8774C204.383 26.4974 204.107 26.2203 203.738 26.0462C203.384 25.872 203.016 25.7533 202.631 25.6899C202.247 25.6266 201.794 25.5949 201.272 25.5949H197.007Z" fill="#023465"/>
<path d="M217.524 16C219.844 16 221.726 16.8233 223.171 18.47C224.631 20.1008 225.361 22.2304 225.361 24.8587C225.361 27.487 224.631 29.6245 223.171 31.2711C221.711 32.902 219.813 33.7174 217.478 33.7174C215.127 33.7174 213.221 32.902 211.761 31.2711C210.317 29.6403 209.595 27.5028 209.595 24.8587C209.595 22.2937 210.302 20.18 211.715 18.5175C213.144 16.8392 215.08 16 217.524 16ZM217.478 18.4937C215.972 18.4937 214.765 19.0716 213.859 20.2275C212.952 21.3675 212.499 22.8954 212.499 24.8112C212.499 26.7745 212.945 28.3341 213.836 29.4899C214.742 30.6457 215.972 31.2236 217.524 31.2236C219.014 31.2236 220.205 30.6457 221.096 29.4899C222.003 28.3182 222.456 26.7666 222.456 24.8349C222.456 22.9033 222.003 21.3675 221.096 20.2275C220.205 19.0716 218.999 18.4937 217.478 18.4937Z" fill="#023465"/>
<path d="M240.153 28.4212C240.153 28.9911 240.038 29.5691 239.807 30.1549C239.577 30.7249 239.223 31.287 238.747 31.8411C238.286 32.3795 237.633 32.8228 236.788 33.1711C235.943 33.5194 234.974 33.6936 233.883 33.6936C231.824 33.6936 230.157 33.1869 228.882 32.1736C227.606 31.1603 226.969 29.672 226.969 27.7087H229.804C229.804 28.9436 230.196 29.862 230.979 30.4636C231.763 31.0495 232.785 31.3424 234.045 31.3424C235.09 31.3424 235.889 31.0891 236.442 30.5824C236.995 30.0757 237.272 29.3395 237.272 28.3737C237.272 27.487 236.995 26.8141 236.442 26.3549C235.904 25.8958 235.159 25.6662 234.206 25.6662H232.201V23.3624H234.206C234.959 23.3624 235.581 23.117 236.073 22.6262C236.58 22.1354 236.834 21.502 236.834 20.7262C236.834 19.9821 236.58 19.4041 236.073 18.9925C235.566 18.565 234.851 18.3512 233.93 18.3512C231.717 18.3512 230.526 19.3408 230.357 21.32H227.614C227.675 19.515 228.267 18.1771 229.389 17.3062C230.511 16.4354 231.963 16 233.745 16C235.482 16 236.903 16.3879 238.009 17.1637C239.116 17.9237 239.669 19.0637 239.669 20.5837C239.669 21.4387 239.4 22.2145 238.862 22.9112C238.324 23.6079 237.717 24.0433 237.041 24.2174V24.2887C237.963 24.4787 238.708 24.9537 239.277 25.7137C239.861 26.4578 240.153 27.3603 240.153 28.4212Z" fill="#023465"/>
<path d="M259.962 16.4037V33.3136H257.22V20.275L252.656 33.3136H250.305L245.626 20.275V33.3136H242.906V16.4037H246.94L251.526 29.6324L255.952 16.4037H259.962Z" fill="#023465"/>
<path d="M270.465 16C272.786 16 274.668 16.8233 276.113 18.47C277.572 20.1008 278.302 22.2304 278.302 24.8587C278.302 27.487 277.572 29.6245 276.113 31.2711C274.653 32.902 272.755 33.7174 270.419 33.7174C268.068 33.7174 266.163 32.902 264.703 31.2711C263.259 29.6403 262.536 27.5028 262.536 24.8587C262.536 22.2937 263.243 20.18 264.657 18.5175C266.086 16.8392 268.022 16 270.465 16ZM270.419 18.4937C268.913 18.4937 267.707 19.0716 266.801 20.2275C265.894 21.3675 265.441 22.8954 265.441 24.8112C265.441 26.7745 265.886 28.3341 266.778 29.4899C267.684 30.6457 268.913 31.2236 270.465 31.2236C271.956 31.2236 273.147 30.6457 274.038 29.4899C274.945 28.3182 275.398 26.7666 275.398 24.8349C275.398 22.9033 274.945 21.3675 274.038 20.2275C273.147 19.0716 271.941 18.4937 270.419 18.4937Z" fill="#023465"/>
<path d="M287.572 25.7137L282.202 33.3136H278.606L285.705 23.5762L279.39 16.4037H282.94L289.347 24.0037V16.4037H292.228V24.0037L298.636 16.4037H302.186L295.87 23.5762L302.97 33.3136H299.374L294.003 25.7137L292.228 27.7562V33.3136H289.347V27.7562L287.572 25.7137Z" fill="#023465"/>
<path d="M317.767 16.4037V33.3136H314.885V25.7137H307.371V33.3136H304.49V16.4037H307.371V23.1249H314.885V16.4037H317.767Z" fill="#023465"/>
<path d="M328.247 16C330.567 16 332.449 16.8233 333.894 18.47C335.354 20.1008 336.083 22.2304 336.083 24.8587C336.083 27.487 335.354 29.6245 333.894 31.2711C332.434 32.902 330.536 33.7174 328.201 33.7174C325.85 33.7174 323.944 32.902 322.484 31.2711C321.04 29.6403 320.318 27.5028 320.318 24.8587C320.318 22.2937 321.025 20.18 322.438 18.5175C323.867 16.8392 325.803 16 328.247 16ZM328.201 18.4937C326.695 18.4937 325.488 19.0716 324.582 20.2275C323.675 21.3675 323.222 22.8954 323.222 24.8112C323.222 26.7745 323.668 28.3341 324.559 29.4899C325.465 30.6457 326.695 31.2236 328.247 31.2236C329.737 31.2236 330.928 30.6457 331.819 29.4899C332.726 28.3182 333.179 26.7666 333.179 24.8349C333.179 22.9033 332.726 21.3675 331.819 20.2275C330.928 19.0716 329.722 18.4937 328.201 18.4937Z" fill="#023465"/>
<path d="M352.743 26.8774C352.589 28.9516 351.867 30.6141 350.576 31.8649C349.301 33.0999 347.641 33.7174 345.598 33.7174C343.277 33.7174 341.418 32.9099 340.02 31.2949C338.621 29.6799 337.922 27.5345 337.922 24.8587C337.922 23.2437 338.222 21.7791 338.821 20.465C339.42 19.135 340.319 18.0662 341.518 17.2587C342.716 16.4354 344.122 16.0237 345.736 16.0237C347.472 16.0237 348.986 16.5225 350.277 17.52C351.567 18.5016 352.343 19.9266 352.605 21.795H349.746C349.547 20.7816 349.086 19.99 348.363 19.42C347.641 18.8341 346.75 18.5412 345.69 18.5412C344.599 18.5412 343.669 18.8579 342.901 19.4912C342.148 20.1246 341.61 20.9083 341.287 21.8425C340.98 22.7608 340.826 23.7662 340.826 24.8587C340.826 25.682 340.918 26.4578 341.103 27.1862C341.287 27.9145 341.564 28.5874 341.933 29.2049C342.301 29.8066 342.801 30.2895 343.431 30.6536C344.076 31.0178 344.822 31.1999 345.667 31.1999C348.11 31.1999 349.508 29.7591 349.862 26.8774H352.743Z" fill="#023465"/>
<path d="M366.69 16.4037V18.9687H361.458V33.3136H358.577V18.9687H353.344V16.4037H366.69Z" fill="#023465"/>
<path d="M368.529 33.3136V16.4037H371.41V29.3711L378.463 16.4037H381.805V33.3136H378.924V20.3462L371.871 33.3136H368.529Z" fill="#023465"/>
<path d="M389.381 22.8162L393 25.7849V28.3499L389.381 31.2236V28.8012L391.594 27.0912L389.381 25.2862V22.8162ZM384.887 22.8399L388.436 25.7374V28.3262L384.887 31.1761V28.7774L387.076 27.0674L384.887 25.3099V22.8399Z" fill="#023465"/>
<path d="M102.928 55.0108C102.928 56.2096 102.577 57.1369 101.874 57.7929C101.183 58.4375 100.201 58.7598 98.9274 58.7598H93.3626V46.6814H101.99V48.5135H95.4206V51.2956H98.9274C100.212 51.2956 101.199 51.6179 101.891 52.2626C102.582 52.9072 102.928 53.8233 102.928 55.0108ZM100.87 55.0617C100.87 54.4283 100.689 53.9307 100.327 53.5688C99.9646 53.2069 99.4597 53.026 98.8121 53.026H95.4206V57.0295H98.845C100.195 57.0295 100.87 56.3736 100.87 55.0617Z" fill="#3EB4F0"/>
<path d="M112.199 58.7598H110.322V51.5331H107.721L107.606 55.367C107.573 56.5093 107.331 57.3971 106.881 58.0304C106.442 58.6524 105.838 58.9634 105.07 58.9634C104.598 58.9634 104.214 58.9012 103.918 58.7768V57.267C104.027 57.3235 104.252 57.3518 104.593 57.3518C105.339 57.3518 105.734 56.628 105.778 55.1804L105.926 50.0063H112.199V58.7598Z" fill="#3EB4F0"/>
<path d="M114.063 52.7036C114.261 50.7245 115.501 49.7349 117.784 49.7349C118.848 49.7349 119.694 49.9498 120.319 50.3796C120.956 50.8093 121.274 51.4766 121.274 52.3813V56.8259C121.274 57.0747 121.302 57.2444 121.356 57.3349C121.422 57.4253 121.543 57.4706 121.719 57.4706C121.85 57.4706 121.993 57.4593 122.147 57.4366V58.7938C121.664 58.9182 121.258 58.9804 120.928 58.9804C120.127 58.9804 119.666 58.6298 119.545 57.9286C118.832 58.6298 117.839 58.9804 116.565 58.9804C115.687 58.9804 114.99 58.7485 114.475 58.2849C113.959 57.8099 113.701 57.1709 113.701 56.3679C113.701 56.1191 113.728 55.8872 113.783 55.6724C113.838 55.4575 113.898 55.2709 113.964 55.1126C114.041 54.9542 114.156 54.8072 114.31 54.6715C114.475 54.5358 114.606 54.4227 114.705 54.3322C114.815 54.2417 114.985 54.1569 115.215 54.0777C115.457 53.9986 115.633 53.942 115.742 53.9081C115.863 53.8629 116.066 53.8176 116.351 53.7724C116.637 53.7271 116.823 53.6989 116.911 53.6876C117.01 53.6649 117.208 53.6367 117.504 53.6027C118.173 53.5123 118.629 53.4388 118.87 53.3822C119.112 53.3144 119.277 53.2182 119.364 53.0938C119.441 53.0033 119.48 52.7941 119.48 52.4661C119.48 51.584 118.898 51.1429 117.734 51.1429C117.12 51.1429 116.67 51.2617 116.384 51.4992C116.099 51.7367 115.918 52.1382 115.841 52.7036H114.063ZM119.463 54.3661C119.32 54.4453 119.156 54.5188 118.969 54.5867C118.783 54.6432 118.629 54.6828 118.508 54.7054C118.398 54.7167 118.217 54.7393 117.965 54.7733C117.723 54.8072 117.564 54.8298 117.487 54.8411C117.257 54.8751 117.076 54.909 116.944 54.9429C116.812 54.9655 116.648 55.0108 116.45 55.0786C116.264 55.1465 116.115 55.2313 116.006 55.3331C115.907 55.4236 115.819 55.5536 115.742 55.7233C115.665 55.8816 115.627 56.0739 115.627 56.3C115.627 56.7185 115.759 57.0408 116.022 57.267C116.297 57.4932 116.675 57.6063 117.158 57.6063C117.992 57.6063 118.634 57.3744 119.084 56.9108C119.337 56.6506 119.463 56.1474 119.463 55.4009V54.3661Z" fill="#3EB4F0"/>
<path d="M129.237 51.5331H125.171V58.7598H123.294V50.0063H129.237V51.5331Z" fill="#3EB4F0"/>
<path d="M133.949 49.7519C135.244 49.7519 136.276 50.1703 137.044 51.0072C137.813 51.8441 138.197 52.9694 138.197 54.3831C138.197 55.8081 137.813 56.939 137.044 57.7759C136.287 58.6128 135.255 59.0313 133.949 59.0313C132.621 59.0313 131.567 58.6128 130.788 57.7759C130.009 56.939 129.619 55.8081 129.619 54.3831C129.619 52.9694 130.009 51.8441 130.788 51.0072C131.578 50.1703 132.632 49.7519 133.949 49.7519ZM135.661 52.1099C135.244 51.5557 134.663 51.2787 133.916 51.2787C133.17 51.2787 132.583 51.5557 132.155 52.1099C131.727 52.6641 131.513 53.4218 131.513 54.3831C131.513 55.367 131.727 56.1361 132.155 56.6902C132.583 57.2444 133.175 57.5215 133.933 57.5215C134.668 57.5215 135.244 57.2444 135.661 56.6902C136.089 56.1247 136.304 55.3501 136.304 54.3661C136.304 53.4048 136.089 52.6527 135.661 52.1099Z" fill="#3EB4F0"/>
<path d="M146.15 51.5331H143.351V58.7598H141.474V51.5331H138.675V50.0063H146.15V51.5331Z" fill="#3EB4F0"/>
<path d="M154.808 56.2831C154.808 57.0747 154.533 57.6854 153.984 58.1152C153.447 58.545 152.678 58.7598 151.68 58.7598H147.218V50.0063H151.91C152.7 50.0063 153.315 50.1929 153.754 50.5662C154.204 50.9394 154.429 51.4653 154.429 52.1438C154.429 52.6075 154.33 52.9807 154.133 53.2635C153.935 53.5462 153.628 53.7894 153.211 53.9929V54.0268C154.275 54.3096 154.808 55.0617 154.808 56.2831ZM151.68 54.892H149.095V57.3009H151.68C152.525 57.3009 152.947 56.9051 152.947 56.1134C152.947 55.7289 152.837 55.4292 152.618 55.2143C152.398 54.9995 152.086 54.892 151.68 54.892ZM151.433 51.4653H149.095V53.484H151.482C152.206 53.484 152.569 53.1334 152.569 52.4322C152.569 51.7876 152.19 51.4653 151.433 51.4653Z" fill="#3EB4F0"/>
<path d="M160.301 49.7519C161.596 49.7519 162.628 50.1703 163.396 51.0072C164.165 51.8441 164.549 52.9694 164.549 54.3831C164.549 55.8081 164.165 56.939 163.396 57.7759C162.639 58.6128 161.607 59.0313 160.301 59.0313C158.973 59.0313 157.919 58.6128 157.14 57.7759C156.361 56.939 155.971 55.8081 155.971 54.3831C155.971 52.9694 156.361 51.8441 157.14 51.0072C157.93 50.1703 158.984 49.7519 160.301 49.7519ZM162.013 52.1099C161.596 51.5557 161.014 51.2787 160.268 51.2787C159.522 51.2787 158.935 51.5557 158.506 52.1099C158.078 52.6641 157.864 53.4218 157.864 54.3831C157.864 55.367 158.078 56.1361 158.506 56.6902C158.935 57.2444 159.527 57.5215 160.285 57.5215C161.02 57.5215 161.596 57.2444 162.013 56.6902C162.441 56.1247 162.655 55.3501 162.655 54.3661C162.655 53.4048 162.441 52.6527 162.013 52.1099Z" fill="#3EB4F0"/>
<path d="M167.92 50.0063V51.1769C168.491 50.2269 169.413 49.7519 170.686 49.7519C171.86 49.7519 172.799 50.176 173.501 51.0242C174.204 51.8724 174.555 53.0033 174.555 54.417C174.555 55.7968 174.209 56.9051 173.518 57.742C172.837 58.5676 171.926 58.9804 170.785 58.9804C169.577 58.9804 168.656 58.5223 168.019 57.6063V62H166.158V50.0063H167.92ZM170.307 51.3126C169.572 51.3126 168.996 51.584 168.579 52.1269C168.162 52.6697 167.953 53.4218 167.953 54.3831C167.953 55.3331 168.162 56.0795 168.579 56.6224C169.007 57.1652 169.594 57.4366 170.34 57.4366C171.054 57.4366 171.619 57.1652 172.036 56.6224C172.453 56.0795 172.662 55.3444 172.662 54.417C172.662 53.467 172.448 52.7149 172.02 52.1608C171.603 51.5953 171.032 51.3126 170.307 51.3126Z" fill="#3EB4F0"/>
<path d="M178.561 58.7598H176.19V50.0063H178.067V56.3849H178.117L181.294 50.0063H183.665V58.7598H181.788V52.3813H181.739L178.561 58.7598Z" fill="#3EB4F0"/>
<path d="M192.213 51.5331H189.415V58.7598H187.538V51.5331H184.739V50.0063H192.213V51.5331Z" fill="#3EB4F0"/>
<path d="M200.598 56.0286C200.39 56.9786 199.934 57.7194 199.232 58.2509C198.54 58.7825 197.712 59.0482 196.746 59.0482C195.462 59.0482 194.441 58.6241 193.683 57.7759C192.937 56.9164 192.564 55.8194 192.564 54.4849C192.564 53.1164 192.948 51.9855 193.716 51.092C194.496 50.1986 195.483 49.7519 196.68 49.7519C197.92 49.7519 198.902 50.1929 199.627 51.0751C200.351 51.9459 200.714 53.1391 200.714 54.6545V54.8581H194.441C194.463 55.7402 194.677 56.4244 195.083 56.9108C195.489 57.3857 196.054 57.6232 196.779 57.6232C197.295 57.6232 197.712 57.4988 198.03 57.25C198.359 56.9899 198.617 56.5828 198.804 56.0286H200.598ZM198.837 53.5688C198.782 52.8337 198.557 52.2569 198.162 51.8385C197.777 51.4087 197.278 51.1938 196.663 51.1938C196.049 51.1938 195.549 51.3974 195.165 51.8045C194.792 52.2117 194.562 52.7998 194.474 53.5688H198.837Z" fill="#3EB4F0"/>
<path d="M209.358 58.7598H207.482V51.5331H204.88L204.765 55.367C204.732 56.5093 204.491 57.3971 204.041 58.0304C203.602 58.6524 202.998 58.9634 202.23 58.9634C201.758 58.9634 201.373 58.9012 201.077 58.7768V57.267C201.187 57.3235 201.412 57.3518 201.752 57.3518C202.499 57.3518 202.894 56.628 202.938 55.1804L203.086 50.0063H209.358V58.7598Z" fill="#3EB4F0"/>
<path d="M217.907 53.9251C218.412 54.4114 218.664 55.0899 218.664 55.9608C218.664 56.8316 218.412 57.5158 217.907 58.0134C217.402 58.511 216.694 58.7598 215.783 58.7598H211.305V50.0063H213.182V53.1786H215.767C216.689 53.1786 217.402 53.4274 217.907 53.9251ZM216.787 55.9947C216.787 55.5989 216.678 55.2822 216.458 55.0447C216.238 54.8072 215.931 54.6884 215.536 54.6884H213.182V57.25H215.569C215.975 57.25 216.277 57.1369 216.474 56.9108C216.683 56.6733 216.787 56.3679 216.787 55.9947Z" fill="#3EB4F0"/>
<path d="M222.025 58.7598H220.148V50.0063H222.025V53.4331H225.745V50.0063H227.622V58.7598H225.745V54.9599H222.025V58.7598Z" fill="#3EB4F0"/>
<path d="M237.718 50.0063H239.595V58.7598H237.718V50.0063ZM235.792 53.9251C236.297 54.4114 236.549 55.0899 236.549 55.9608C236.549 56.8316 236.297 57.5158 235.792 58.0134C235.287 58.511 234.579 58.7598 233.668 58.7598H229.519V50.0063H231.396V53.1786H233.652C234.574 53.1786 235.287 53.4274 235.792 53.9251ZM234.673 55.9947C234.673 55.5989 234.563 55.2822 234.343 55.0447C234.124 54.8072 233.816 54.6884 233.421 54.6884H231.396V57.25H233.454C233.86 57.25 234.162 57.1369 234.36 56.9108C234.568 56.6733 234.673 56.3679 234.673 55.9947Z" fill="#3EB4F0"/>
<path d="M247.921 46.393C247.833 47.2073 247.569 47.8123 247.13 48.2081C246.691 48.5927 246.055 48.7849 245.221 48.7849C244.386 48.7849 243.75 48.5927 243.311 48.2081C242.872 47.8123 242.608 47.2073 242.521 46.393H243.475C243.684 47.2525 244.266 47.6823 245.221 47.6823C246.175 47.6823 246.757 47.2525 246.966 46.393H247.921ZM243.854 58.7598H241.483V50.0063H243.36V56.3849H243.41L246.587 50.0063H248.958V58.7598H247.081V52.3813H247.032L243.854 58.7598Z" fill="#3EB4F0"/>
<path d="M267.538 54.2474C267.538 55.1182 267.428 55.8986 267.209 56.5884C267 57.267 266.627 57.8381 266.089 58.3018C265.551 58.7655 264.882 58.9973 264.081 58.9973C263.773 58.9973 263.444 58.9182 263.093 58.7598C262.742 58.5902 262.484 58.3979 262.319 58.1831H262.27V62H260.393V58.1831H260.343C260.179 58.3979 259.921 58.5902 259.57 58.7598C259.218 58.9182 258.889 58.9973 258.582 58.9973C257.78 58.9973 257.111 58.7655 256.573 58.3018C256.035 57.8381 255.657 57.267 255.437 56.5884C255.229 55.8986 255.124 55.1182 255.124 54.2474C255.124 52.8676 255.426 51.7763 256.03 50.9733C256.633 50.159 257.446 49.7519 258.466 49.7519C258.818 49.7519 259.174 49.8424 259.537 50.0233C259.91 50.2043 260.179 50.4135 260.343 50.651H260.393V46.6814H262.27V50.651H262.319C262.484 50.4135 262.747 50.2043 263.109 50.0233C263.482 49.8424 263.845 49.7519 264.196 49.7519C265.217 49.7519 266.029 50.159 266.633 50.9733C267.236 51.7763 267.538 52.8676 267.538 54.2474ZM265.661 54.2813C265.661 52.2569 265.041 51.2447 263.801 51.2447C263.471 51.2447 263.159 51.3295 262.862 51.4992C262.577 51.6575 262.379 51.9176 262.27 52.2795V56.5375C262.324 56.809 262.484 57.0408 262.747 57.2331C263.01 57.414 263.334 57.5045 263.718 57.5045C264.41 57.5045 264.904 57.1991 265.2 56.5884C265.507 55.9777 265.661 55.2087 265.661 54.2813ZM260.393 56.5375V52.2795C260.283 51.9176 260.08 51.6575 259.784 51.4992C259.498 51.3295 259.191 51.2447 258.862 51.2447C257.621 51.2447 257.001 52.2569 257.001 54.2813C257.001 55.2087 257.149 55.9777 257.446 56.5884C257.753 57.1991 258.252 57.5045 258.944 57.5045C259.328 57.5045 259.652 57.414 259.915 57.2331C260.179 57.0408 260.338 56.809 260.393 56.5375Z" fill="#3EB4F0"/>
<path d="M273.056 49.7519C274.351 49.7519 275.383 50.1703 276.151 51.0072C276.92 51.8441 277.304 52.9694 277.304 54.3831C277.304 55.8081 276.92 56.939 276.151 57.7759C275.394 58.6128 274.362 59.0313 273.056 59.0313C271.728 59.0313 270.675 58.6128 269.895 57.7759C269.116 56.939 268.726 55.8081 268.726 54.3831C268.726 52.9694 269.116 51.8441 269.895 51.0072C270.685 50.1703 271.739 49.7519 273.056 49.7519ZM274.769 52.1099C274.351 51.5557 273.77 51.2787 273.023 51.2787C272.277 51.2787 271.69 51.5557 271.262 52.1099C270.834 52.6641 270.62 53.4218 270.62 54.3831C270.62 55.367 270.834 56.1361 271.262 56.6902C271.69 57.2444 272.282 57.5215 273.04 57.5215C273.775 57.5215 274.351 57.2444 274.769 56.6902C275.197 56.1247 275.411 55.3501 275.411 54.3661C275.411 53.4048 275.197 52.6527 274.769 52.1099Z" fill="#3EB4F0"/>
<path d="M280.758 58.7598H278.881V50.0063H280.758V53.4331H284.479V50.0063H286.355V58.7598H284.479V54.9599H280.758V58.7598Z" fill="#3EB4F0"/>
<path d="M297.061 61.542H295.282V58.7598H289.24V61.542H287.462V57.2331H288.532C289.202 55.6158 289.537 53.5349 289.537 50.9903V50.0063H295.925V57.2331H297.061V61.542ZM294.081 57.2331V51.4992H291.331V52.0929C291.331 53.009 291.238 53.9703 291.051 54.9768C290.865 55.9721 290.667 56.7241 290.458 57.2331H294.081Z" fill="#3EB4F0"/>
<path d="M1.74656 34.3933C2.02889 32.34 2.18289 30.415 2.90156 28.49C3.00423 28.2077 3.05556 27.9253 3.15823 27.643C3.38923 27.0783 3.74856 26.6933 4.39023 26.9757C5.00623 27.258 5.03189 27.7457 4.85223 28.336C4.10789 30.7487 3.67156 33.2127 3.44056 35.728C1.77223 53.4637 14.5799 70.224 32.1616 73.2013C51.3602 76.4867 69.0702 64.4747 73.0229 45.4557C77.0782 26.0003 63.3209 6.545 43.6602 3.85C41.8379 3.59333 40.0156 3.51633 38.1932 3.49067C37.4746 3.49067 36.4992 3.696 36.4479 2.64367C36.3966 1.463 37.4232 1.64267 38.1932 1.617C55.0049 1.36033 70.1226 12.9617 74.3576 29.3883C80.6716 53.823 60.9852 77.385 35.8319 75.5113C18.7892 74.2793 5.08323 61.6 2.00323 44.814C1.20756 40.579 1.41289 36.9857 1.74656 34.3933Z" fill="#1C6A9B"/>
<path d="M64.1927 43.274C62.088 39.9887 60.1887 36.575 58.161 33.264C56.8007 31.031 54.85 30.415 52.771 31.4673C50.615 32.5453 49.9477 34.6757 50.923 37.1397C51.231 37.884 51.7443 38.577 51.847 39.578C49.9477 38.654 48.2537 37.7557 46.5083 36.9857C45.7127 36.6263 45.2763 36.113 44.9683 35.343C43.377 31.262 41.76 27.181 40.143 23.1C39.8863 22.4327 39.604 21.791 39.219 20.8413C40.9387 21.868 42.2733 22.7663 43.7107 23.485C45.995 24.6657 48.4333 24.024 49.8193 21.945C51.2053 19.9173 50.9487 17.1967 48.9723 15.6823C43.839 11.6783 38.834 7.49466 33.4183 3.90133C31.5447 2.66933 29.4913 1.89933 27.2583 1.56566C25.6927 1.33466 22.741 1.28333 21.124 1.61699C18.3263 2.20733 13.6293 4.15799 10.9343 7.18666C5.77534 12.9873 4.8 19.558 7.54634 26.7447C9.651 32.263 11.7557 37.807 13.886 43.3253C14.1683 44.0697 14.4763 44.7883 14.9127 45.4557C16.504 47.9967 19.584 48.4843 21.971 46.6877C22.2533 46.4823 22.4073 45.9947 23.049 46.1487C23.8447 49.9987 26.1547 51.975 30.5693 51.051C27.3097 55.0037 29.209 57.519 32.2377 58.828C36.524 60.7017 40.7333 62.7807 44.9427 64.757C47.612 66.0147 50.384 66.374 53.31 65.8863C62.8837 64.3207 70.3527 52.8733 64.1927 43.274ZM25.9237 32.8533C26.4627 34.2907 26.976 35.728 27.5407 37.1397C27.8487 37.9097 27.977 38.6027 27.592 39.3983C26.899 40.8613 27.2583 42.1703 28.3107 43.351C28.5417 43.6077 29.055 43.8643 28.5673 44.3007C27.2327 45.5327 27.0273 47.0727 27.3353 48.8693C26.1803 48.4587 25.8467 47.586 25.513 46.739C23.3057 41.041 21.0983 35.343 18.8653 29.6707C18.5573 28.9007 18.4803 27.4633 17.12 28.0537C15.888 28.5927 16.6323 29.6707 16.9403 30.492C18.3777 34.2137 19.8663 37.9353 21.3037 41.657C21.9967 43.4537 21.4577 44.891 19.9177 45.4557C18.429 46.0203 17.12 45.43 16.427 43.659C13.9373 37.268 11.2937 30.954 9.08634 24.4603C6.98167 18.326 8.342 12.6793 12.9877 8.13633C17.5563 3.69599 23.1003 2.43833 29.2603 4.23499C30.749 4.67133 32.0837 5.44133 33.29 6.36533C37.8587 9.80466 42.4273 13.2697 46.9703 16.7347C47.5607 17.171 48.1253 17.633 48.3563 18.403C48.69 19.5067 48.459 20.482 47.689 21.2777C46.919 22.0477 45.9693 22.176 44.9683 21.7397C42.7353 20.7643 40.8103 19.3013 38.757 18.018C37.294 17.1197 36.0877 16.8117 34.291 17.5303C30.1587 19.173 26.2573 18.3773 22.8693 15.4C22.3047 14.9123 21.74 14.2193 20.9957 14.9893C20.2257 15.7593 20.739 16.4267 21.3807 16.9913C25.2563 20.4307 29.671 21.406 34.5733 19.7377C35.8567 19.3013 36.3187 19.5067 36.7807 20.7643C38.3463 24.9737 40.0403 29.1317 41.6573 33.3153C41.8113 33.726 42.1193 34.0853 41.9397 34.881C40.3227 33.726 38.7313 32.9817 36.7807 33.6747C36.2417 33.88 36.1647 33.1357 36.0107 32.7763C35.292 30.954 34.599 29.0803 33.8803 27.258C33.6237 26.5907 33.3413 25.6923 32.366 26.0773C31.3137 26.4623 31.6473 27.3093 31.9553 28.0537C32.751 30.0813 33.5467 32.0833 34.3167 34.111C34.4707 34.5217 34.676 34.9837 34.6503 35.3687C34.5733 35.9847 34.4707 36.729 34.06 37.1653C33.598 37.6787 33.059 36.9343 32.52 36.8317C32.1863 36.7803 31.8013 36.6007 31.519 36.7033C29.902 37.268 29.3887 36.3953 29.0037 35.035C28.747 34.034 28.2593 33.11 27.8487 32.1603C27.592 31.5957 27.2327 31.0823 26.4883 31.3903C25.7953 31.6727 25.6927 32.2117 25.9237 32.8533ZM50.8717 63.9357C49.3317 63.91 47.7917 63.7303 46.4057 63.063C41.683 60.8557 36.9603 58.6227 32.2377 56.3897C31.211 55.902 30.6977 55.1577 31.1083 54.0027C31.5447 52.7963 32.52 52.5653 33.6493 52.822C34.0343 52.899 34.3937 53.1043 34.7273 53.2583C36.8063 54.2593 38.911 55.2603 40.99 56.2613C41.529 56.518 42.068 56.7747 42.607 57.0057C43.3513 57.3393 44.224 57.6987 44.686 56.749C45.1993 55.7223 44.224 55.4143 43.531 55.0807C40.0147 53.4123 36.4983 51.744 33.0077 50.05C32.3917 49.742 31.75 49.4853 31.134 49.1773C29.3887 48.3047 28.9523 47.586 29.4657 46.4053C29.979 45.2247 30.672 45.0963 32.597 45.9433C35.3947 47.1497 38.1923 48.3817 40.9643 49.6393C41.683 49.9473 42.4273 50.281 42.8893 49.4083C43.4027 48.433 42.607 47.9967 41.8883 47.6373C38.295 45.9177 34.676 44.2237 31.0827 42.5297C29.44 41.734 29.0293 41.0153 29.594 39.8603C30.21 38.6027 31.3137 38.269 32.8537 38.9877C36.986 40.9383 41.1183 42.9403 45.2507 44.9167C45.5073 45.045 45.764 45.199 46.0463 45.3017C46.7137 45.5327 47.4323 45.7893 47.8173 44.891C48.2023 44.0183 47.5863 43.6077 46.9447 43.2997C44.455 42.0933 41.9653 40.9383 39.4757 39.7577C38.757 39.424 38.0383 39.0903 37.3967 38.654C36.601 38.1407 36.062 37.422 36.5753 36.421C37.0887 35.3943 37.987 35.0607 39.065 35.42C39.5783 35.574 40.0403 35.8563 40.528 36.113C44.5833 38.1407 48.6387 40.1683 52.6683 42.196C52.7967 42.273 52.925 42.35 53.0533 42.4013C53.6693 42.6837 54.3623 43.12 54.9527 42.504C55.4917 41.965 55.158 41.2977 54.9013 40.7073C54.234 39.2187 53.5667 37.73 52.925 36.2413C52.3347 34.8553 52.5657 33.88 53.618 33.3153C54.773 32.6993 55.5687 32.9817 56.39 34.3677C58.4177 37.7557 60.2913 41.2463 62.4473 44.5317C67.863 52.899 60.6507 63.91 50.8717 63.9357Z" fill="#1C6A9B"/>
</svg>
